<?xml version="1.0" standalone="no"?>
<!DOCTYPE svg PUBLIC "-//W3C//DTD SVG 1.1//EN" "http://www.w3.org/Graphics/SVG/1.1/DTD/svg11.dtd" >
<svg xmlns="http://www.w3.org/2000/svg" xmlns:xlink="http://www.w3.org/1999/xlink" version="1.1">
<metadata>
Created by FontForge 20161003 at Wed Aug 22 14:52:21 2018
 By www-data
\(c\) Svetlana Kovaleva, 1992; \(c\) Alexander Pompeev, 1994-98.
</metadata>
<defs>
<font id="EastAP" horiz-adv-x="652" >
  <font-face 
    font-family="EastAP"
    font-weight="400"
    font-stretch="normal"
    units-per-em="1000"
    panose-1="4 0 5 0 0 0 0 0 0 0"
    ascent="809"
    descent="-191"
    x-height="637"
    cap-height="653"
    bbox="-139 -191 1047 887"
    underline-thickness="50"
    underline-position="-150"
    unicode-range="U+0020-2122"
  />
<missing-glyph horiz-adv-x="280" 
 />
    <glyph glyph-name=".notdef" horiz-adv-x="280" 
 />
    <glyph glyph-name=".null" horiz-adv-x="0" 
 />
    <glyph glyph-name="nonmarkingreturn" horiz-adv-x="333" 
 />
    <glyph glyph-name="space" unicode=" " horiz-adv-x="453" 
 />
    <glyph glyph-name="space" unicode="&#xa0;" horiz-adv-x="453" 
 />
    <glyph glyph-name="exclam" unicode="!" horiz-adv-x="297" 
d="M231 564q0 -4 -10 -18.5t-10 -34.5v-287q0 -24 -33.5 -60.5t-57.5 -36.5q-26 0 -26 48v345q0 32 -13 68.5t-13 43.5q0 20 15 20q19 0 83.5 -36.5t64.5 -51.5zM213 48v-8v-9.5t-0.5 -9.5t-1.5 -10t-3.5 -7.5t-6 -5.5t-8.5 -2q-7 0 -21 2t-21 2t-21 -2t-21 -2q-10 0 -15 4
q-4 8 -4 29q0 22 4 39q1 4 16.5 9.5t34 10.5t23.5 9q2 2 15.5 16.5t19.5 14.5q10 0 10 -80z" />
    <glyph glyph-name="quotedbl" unicode="&#x22;" horiz-adv-x="511" 
d="M459 509q0 -26 -11 -46t-32 -34.5t-40 -23t-46 -17.5q-4 -1 -6 -1q-1 0 -1 1q0 2 35 38.5t35 52.5q0 6 -5 9.5t-13 4t-16 0.5t-16.5 -1t-11.5 -1q-10 0 -16.5 8t-9 24t-3 28t0.5 30.5t1 21.5q0 16 7 22.5t23 6.5l22 1q21 1 33.5 0t31 -3.5t27.5 -10.5t9 -20
q-2 -18 -2 -27q0 -10 2 -31t2 -32zM236 509q0 -26 -11 -46t-32 -34.5t-40 -23t-46 -17.5q-4 -1 -6 -1q-1 0 -1 1q0 2 35 38.5t35 52.5q0 6 -5 9.5t-13 4t-16 0.5t-16.5 -1t-11.5 -1q-10 0 -16.5 8t-9 24t-3 28t0.5 30.5t1 21.5q0 16 7 22.5t23 6.5l21 1q22 1 34.5 0t31 -3.5
t27.5 -10.5t9 -20q-2 -18 -2 -27q0 -10 2 -31t2 -32z" />
    <glyph glyph-name="numbersign" unicode="#" horiz-adv-x="977" 
d="M951 371q0 -27 -47.5 -68t-73.5 -41q-9 0 -11.5 23t-16.5 32q-19 13 -66 31q-7 -14 -22 -37.5t-20 -33.5q75 -24 161 -77l12 -7q-1 0 -40.5 15t-85 31.5t-58.5 19.5q-23 -34 -49 -69.5t-68 -88.5t-80 -86t-60 -33q-27 0 -68 48.5t-41 74.5q0 5 4.5 7.5t11.5 3t14 0
t14.5 -1.5t9.5 -1q44 0 121.5 56.5t125.5 106.5q-73 13 -137 13q-71 0 -161 -17q-42 -43 -75 -173q-6 -22 -16 -68l-4 -17l-3 -6v3q0 140 51 251q-58 -21 -91 -44q-13 -9 -15.5 -32t-11.5 -23q-27 0 -74.5 41t-47.5 68q0 25 33 41.5t85.5 22.5t87.5 7.5t68 0.5q30 55 43 71
q-18 2 -26 2q-51 0 -162 -21q-4 -1 -25.5 -6t-32.5 -5v1q52 37 131.5 59.5t153.5 25.5q4 5 19 24t26.5 33.5t29 36t33 37t32 30.5t31 23t25.5 8q27 0 68 -48.5t41 -75.5q0 -9 -14 -9q-7 0 -20.5 1.5t-20.5 1.5q-13 0 -36.5 -10.5t-53 -28t-36.5 -20.5q94 0 212 -20
q32 59 54 159l3 15t4 18t5 15q1 3 2 3t1 -3q6 -31 6 -64q0 -69 -25 -151q111 -16 147 -36q29 -17 29 -39zM683 371q-40 16 -121 30t-127 14q-12 -9 -23 -19.5t-27.5 -29.5t-19.5 -22q106 0 270 -46q4 6 13 17t14.5 18t11.5 17.5t9 20.5z" />
    <glyph glyph-name="dollar" unicode="$" horiz-adv-x="568" 
d="M543 193q0 -44 -44 -80.5t-97.5 -53t-95.5 -16.5q-10 -21 -31 -47.5t-37 -26.5q-5 0 -5 5q0 8 18 32.5t21 34.5l-37 -1q-31 -1 -84.5 12t-65.5 13q-8 0 -20.5 -21.5t-16.5 -21.5q-11 0 -11 36q0 17 5 49.5t5 48.5q0 15 -9.5 38.5t-9.5 34.5q0 7 7 7q9 0 45 -25
q59 -45 97 -60t109 -22q11 79 11 131q-32 2 -62 6.5t-68.5 15.5t-67 26.5t-48 42t-19.5 59.5q0 51 36 87t82.5 50.5t95.5 14.5q-3 6 -25.5 20t-22.5 20q0 12 65 12q9 0 26 1.5t25 1.5q27 0 27 -11q0 -4 -4 -12.5t-4 -13.5q0 -3 3 -9q12 0 38 1.5t38 1.5q67 0 86 -22l2 -2
q5 0 15.5 12t17.5 12t7 -11q0 -17 -12 -68t-12 -89q0 -19 -11 -19q-3 1 -13 18t-23 35t-45.5 32.5t-76.5 12.5l-14 -1q0 -89 -1 -133q35 -5 58.5 -10t55.5 -17t51 -27.5t32.5 -42t13.5 -61.5zM297 356q-5 76 -28 136l-28 1q-20 0 -45.5 -2.5t-56.5 -8.5t-52 -21.5t-21 -36.5
q0 -63 231 -68zM511 187q0 64 -179 68l-18 -129l15 -1q39 -1 110.5 16.5t71.5 45.5z" />
    <glyph glyph-name="percent" unicode="%" horiz-adv-x="653" 
d="M270 552q0 -42 -32.5 -78t-73.5 -36q-48 0 -81 33t-33 81q0 47 33.5 71.5t82.5 24.5q42 0 73 -27t31 -69zM606 505q0 -8 -10.5 -9.5t-27.5 0.5t-18 2q-10 0 -19 -3q-242 -96 -377 -342q-30 -56 -50 -108q-1 -2 -7 -18.5t-12 -31t-8 -15.5l-2 6q51 310 365 613
q29 29 56 29t68.5 -48t41.5 -75zM533 102q0 -48 -39 -82t-88 -34t-83.5 34.5t-34.5 84.5q0 51 36.5 83.5t88.5 32.5q47 0 83.5 -36.5t36.5 -82.5zM231 558q0 18 -13.5 28.5t-31.5 10.5t-32 -11t-14 -28t14 -28t32 -11t31.5 10.5t13.5 28.5zM477 112q0 18 -16.5 32.5
t-34.5 14.5q-19 0 -37.5 -13t-18.5 -31q0 -27 17.5 -40t45.5 -13q18 0 31 15.5t13 34.5z" />
    <glyph glyph-name="ampersand" unicode="&#x26;" horiz-adv-x="671" 
d="M657 -26q0 -10 -15 -10q-6 0 -9 1q-31 6 -58 15t-55 24.5t-43 24t-49.5 32.5t-47.5 32q-114 -114 -214 -114q-66 0 -107 49.5t-41 117.5q0 22 3.5 40.5t14.5 35t18 27.5t26 25.5t27 20.5t32.5 21.5t31.5 19.5q-17 33 -23.5 46.5t-13 38.5t-6.5 52q0 25 12.5 68.5
t12.5 49.5q0 8 -7 24t-7 23q0 12 13 12q7 0 16.5 -4.5t23.5 -12.5t15 -9q46 29 116 29q50 0 91.5 -30.5t41.5 -79.5q0 -34 -22.5 -71.5t-45.5 -61t-65 -60.5t-53 -48q41 -74 110 -136q3 4 12 17l13.5 19.5t10.5 17.5t8.5 21t2.5 21q0 16 -10.5 42.5t-10.5 34.5q0 12 19 12
q16 0 46.5 -4.5t46.5 -4.5t44 8.5t42 8.5q19 0 19 -15t-14 -29t-30 -21q-57 -25 -166 -164q42 -43 106 -85.5t114 -54.5q24 -6 24 -16zM389 529q0 49 -82 49q-43 0 -66 -31.5t-23 -76.5q0 -49 26 -104q50 30 97.5 76t47.5 87zM350 127q-85 85 -133 146q-57 -59 -72 -87
q-21 -35 -21 -71q0 -71 61 -71q36 0 92.5 27t72.5 56z" />
    <glyph glyph-name="quotesingle" unicode="'" horiz-adv-x="276" 
d="M223 509q0 -26 -11 -46t-32 -34.5t-40 -23t-46 -17.5q-4 -1 -6 -1q-1 0 -1 1q0 2 35 38.5t35 52.5q0 6 -5 9.5t-13 4t-16 0.5t-16.5 -1t-11.5 -1q-10 0 -16.5 8t-9 24t-3 28t0.5 30.5t1 21.5q0 16 7 22.5t23 6.5l22 1q21 1 33.5 0t31 -3.5t27.5 -10.5t9 -20
q-2 -18 -2 -27q0 -10 2 -31t2 -32z" />
    <glyph glyph-name="parenleft" unicode="(" horiz-adv-x="418" 
d="M398 685q0 -3 -4 -6.5t-8 -5t-10 -3.5l-6 -2q-91 -29 -173 -132t-82 -195q0 -247 98 -369q16 -19 65 -59q18 -15 18 -24t-11 -9q-9 0 -20 7q-100 64 -149 188.5t-49 258.5q0 62 11 125t42.5 128t79.5 93q8 4 17.5 7t16.5 4.5t19.5 2.5t17.5 1h19.5h17.5q1 0 14.5 0.5
t24 0t23.5 -1t20.5 -3t7.5 -6.5z" />
    <glyph glyph-name="parenright" unicode=")" horiz-adv-x="413" 
d="M361 270q0 -62 -11 -125t-42.5 -128t-79.5 -93q-8 -4 -17.5 -7t-16.5 -4.5t-19.5 -2.5t-17.5 -1h-19.5h-17.5q-1 0 -14.5 -0.5t-24 0t-23.5 1t-20.5 3t-7.5 6.5q0 3 4 6.5t8 5t10 3.5l6 2q91 29 173 132t82 195q0 247 -98 369q-16 19 -65 59q-18 15 -18 24t11 9
q9 0 20 -7q100 -64 149 -188.5t49 -258.5z" />
    <glyph glyph-name="asterisk" unicode="*" horiz-adv-x="483" 
d="M426 233q0 -10 -40.5 -26.5t-55.5 -16.5q-9 0 -9 10v3q0 16 -12.5 38.5t-26.5 33.5q-35 -38 -43 -44q28 -61 52 -79q17 -10 17 -19q0 -3 -5 -3q-21 0 -52.5 26.5t-42.5 48.5q-12 -9 -46 -28t-42 -19q-16 0 -31 36.5t-15 56.5q0 7 4 10.5t11 4.5t13.5 0.5t14.5 -1.5t12 -1
q35 0 51 7q-10 38 -13 68q-68 14 -102 14q-27 0 -27 10q10 19 127 13q-3 66 -3 67q0 36 10.5 51t45.5 15q16 0 39 -5.5t23 -16.5q0 -4 -5 -9q-53 -57 -57 -112q21 -7 61 -23q17 17 36.5 46.5t24.5 48.5q4 22 13 22q6 0 6 -13q0 -20 -15 -61.5t-28 -60.5q10 -6 26 -14t23 -12
t17.5 -12t19.5 -18.5t20 -25.5q4 -6 4 -10zM243 308q-17 11 -30 16v-5q0 -13 5 -30q9 5 25 19z" />
    <glyph glyph-name="plus" unicode="+" horiz-adv-x="601" 
d="M523 331q0 -13 -11 -21q-27 -17 -47 -85q-3 -8 -7 -8q-3 0 -6.5 2t-8 5.5t-5.5 4.5q-39 26 -137 52q-5 -19 -5 -48q0 -25 8 -57t15.5 -54t7.5 -24q0 -9 -10 -9q-15 17 -25 30t-18 28t-12.5 23.5t-9.5 26.5t-6.5 25t-6.5 32t-7 36q-16 2 -25 2q-17 0 -51 -4.5t-51 -4.5
q-22 0 -22 10q3 5 16 10.5t33.5 10.5t37 9t37.5 8t23 4v12.5v19.5v23.5t0.5 26.5t2 26t3.5 24.5t4.5 19.5t7 14t9.5 5h114q28 0 28 -7q-4 -8 -40 -61.5t-42 -88.5q45 3 89 3q90 0 106 -3q11 -1 11 -18z" />
    <glyph glyph-name="comma" unicode="," horiz-adv-x="321" 
d="M223 29q0 -26 -11 -46t-32 -34.5t-40 -23t-46 -17.5q-4 -1 -6 -1q-1 0 -1 1q0 2 35 38.5t35 52.5q0 6 -5 9.5t-13 4t-16 0.5t-16.5 -1t-11.5 -1q-10 0 -16.5 8t-9 24t-3 28t0.5 30.5t1 21.5q0 16 7 22.5t23 6.5l22 1q21 1 33.5 0t31 -3.5t27.5 -10.5t9 -20q-2 -18 -2 -27
q0 -10 2 -31t2 -32z" />
    <glyph glyph-name="hyphen" unicode="-" horiz-adv-x="578" 
d="M461 349q0 -11 -16 -24q-39 -35 -125 -63.5t-143 -28.5q-26 0 -58.5 7t-32.5 23q0 7 22 35t25 48q6 29 17 29q8 0 21 -11.5t14 -12.5q30 -34 109 -34q44 0 99 18.5t60 18.5q8 0 8 -5z" />
    <glyph glyph-name="hyphen" unicode="&#xad;" horiz-adv-x="578" 
d="M461 349q0 -11 -16 -24q-39 -35 -125 -63.5t-143 -28.5q-26 0 -58.5 7t-32.5 23q0 7 22 35t25 48q6 29 17 29q8 0 21 -11.5t14 -12.5q30 -34 109 -34q44 0 99 18.5t60 18.5q8 0 8 -5z" />
    <glyph glyph-name="period" unicode="." horiz-adv-x="271" 
d="M181 76v-37v-16.5t-2.5 -11t-3 -7t-6 -3.5t-7.5 -1h-11h-14q-7 0 -22.5 -2t-23.5 -2q-26 0 -26 21q0 7 3 22t3 23q0 6 -3 18t-3 19t3.5 11t11 5.5t12.5 2t14.5 0t11.5 -0.5h14.5h13t10 -0.5t9.5 -2t7 -4.5t5.5 -7.5t2.5 -11t1 -15.5z" />
    <glyph glyph-name="slash" unicode="/" horiz-adv-x="608" 
d="M554 499q0 -8 -10.5 -9.5t-27.5 0.5t-18 2q-10 0 -19 -3q-242 -96 -377 -341q-31 -56 -50 -109q-1 -2 -7 -18t-12 -30.5t-8 -15.5l-2 6q69 211 144.5 341.5t220.5 270.5q29 29 56 29t68.5 -48t41.5 -75z" />
    <glyph glyph-name="zero" unicode="0" 
d="M593 303q0 -133 -79.5 -227.5t-209.5 -94.5q-124 0 -201.5 97.5t-77.5 224.5q0 35 10 83t25 72q33 13 63 42t46.5 53t40.5 65q58 20 101 20q45 0 77.5 -10.5t67.5 -37.5q6 3 28 13t33.5 16t27.5 16t25 20q5 7 10 7t5 -10q0 -18 -18 -41.5t-28 -31.5t-38 -30
q42 -37 67 -110t25 -136zM478 305q0 86 -29 170q-2 -5 -5 -22.5t-6 -33t-5 -15.5l-2 -1q-12 0 -41.5 58.5t-29.5 75.5q0 12 4 15.5t16 1t16 -2.5q3 0 11 2q-20 20 -29 28.5t-29 18.5t-39 10q-45 0 -79.5 -33.5t-52 -84.5t-26 -98.5t-8.5 -88.5t7.5 -86t24 -92.5t50 -78
t78.5 -30.5q44 0 79.5 30.5t55 77t29.5 93t10 86.5z" />
    <glyph glyph-name="one" unicode="1" horiz-adv-x="356" 
d="M303 558q0 -3 -15 -18.5t-15 -32.5v-433q0 -5 13 -26.5t13 -32.5q0 -16 -26 -16t-70 -10t-62 -10q-34 0 -34 16q0 9 14 21q17 15 25.5 38.5t9 37t0.5 47.5v305q-58 -100 -157 -121q20 15 35.5 32t24.5 40t14.5 37t8 44.5t3 40.5t0 47.5t-0.5 44.5q0 12 9 12q7 0 18.5 -5
t25.5 -13t19 -10q0 7 -6 23.5t-6 25.5q0 8 7 8q23 0 52 -23.5t38 -27.5q62 -28 62 -41z" />
    <glyph glyph-name="two" unicode="2" horiz-adv-x="622" 
d="M592 9q0 -5 -6 -9h-585q16 63 49 109.5t72.5 72t83.5 45t85 35t74.5 34.5t53.5 51t20 78q0 78 -56.5 121t-136.5 43q-58 0 -93.5 -13t-53 -45.5t-23 -67.5t-7.5 -99q-55 94 -55 201q0 51 16 72q3 16 20 16q12 0 53.5 -17.5t66.5 -17.5q28 0 85.5 8t86.5 8q219 0 219 -147
q0 -49 -20 -89t-52.5 -68t-71.5 -52.5t-79.5 -48.5t-74.5 -50.5t-58 -64t-29 -83.5h222q95 77 107 77q10 0 48.5 -43.5t38.5 -55.5z" />
    <glyph glyph-name="three" unicode="3" horiz-adv-x="722" 
d="M664 154q0 -51 -40.5 -87.5t-103 -53t-116 -23.5t-102.5 -7q-184 0 -289 169q-12 20 -12 44q0 25 16 28q20 4 64 9.5t67 10.5q20 5 24 5q9 0 15.5 -7t6.5 -16q0 -8 -15.5 -20t-31 -29t-15.5 -36q0 -7 3 -15q24 -58 63.5 -84t103.5 -26q45 0 97 17.5t93 55.5t41 86
q0 40 -40 69t-82 29q-14 0 -18 -12t-10 -12q-23 0 -58.5 39t-35.5 63q0 8 13.5 18.5t31 22.5t22.5 18q114 140 114 148q0 10 -10 15t-21 5h-231q-35 0 -60 -15t-38.5 -36t-21.5 -55t-10 -58t-3 -59q-55 94 -55 201q0 51 16 72q3 15 19 15q13 0 54 -17t66 -17q59 0 178 0.5
t178 0.5q16 0 45.5 9.5t44.5 9.5q18 0 18 -18q0 -6 -2 -14l-182 -247q-1 -2 -13 -11t-13 -17q3 -5 8 -5.5t12.5 1t9.5 1.5q100 0 152.5 -35.5t52.5 -129.5z" />
    <glyph glyph-name="four" unicode="4" horiz-adv-x="599" 
d="M565 564q0 -4 -10 -18t-10 -35v-401q0 -12 8.5 -23t8.5 -14q0 -22 -43.5 -66.5t-62.5 -44.5q-14 0 -34 16.5t-20 30.5q0 8 13 32.5t13 36.5v75h-240q-10 0 -27 -21t-30 -21q-14 0 -73 55.5t-59 66.5q0 9 8.5 13.5t19.5 5t24.5 4.5t22.5 13l97 280q9 27 9 32
q0 12 -7.5 33.5t-7.5 31.5q0 7 9 7q29 0 85 -35t56 -62q0 -15 -25 -22q-1 -4 -33.5 -89t-56 -152t-23.5 -80q0 -27 47 -27h204v334q0 32 -13 68.5t-13 43.5q0 20 15 20q19 0 83.5 -36.5t64.5 -51.5z" />
    <glyph glyph-name="five" unicode="5" horiz-adv-x="651" 
d="M598 198q0 -53 -47 -101.5t-102 -64.5q32 -28 32 -40q0 -9 -15 -9q-26 0 -89 30q-28 -7 -66 -10t-60.5 -3.5t-73 0t-61.5 0.5q-36 0 -64.5 -20t-34.5 -20q-11 0 -11 19q0 16 4 48.5t4 48.5q0 14 -2 43t-2 43q0 34 10 34q13 0 26 -25.5t24 -56t32.5 -56t47.5 -25.5
q38 0 60.5 0.5t56 3t54 8t46 14.5t40.5 23.5t29 34t20 47.5t6 63q0 53 -49 94.5t-103 41.5q-39 0 -77 -21.5t-65 -55.5q-3 -4 -8 -19t-9.5 -27.5t-8.5 -12.5q-4 1 -8 7q-6 8 -12.5 15t-15 14t-14 11.5t-17 12t-15.5 10t-17.5 10.5t-16.5 10q-12 7 -12 15q0 5 6 13.5t6 11.5
v173q0 30 -15.5 65t-15.5 36l4 6q2 2 8 2q8 0 33 -16.5t63 -32.5t78 -16h208q95 77 107 77q10 0 48.5 -43.5t38.5 -55.5q0 -5 -6 -9h-381q-25 0 -39 -15.5t-14 -40.5v-170q30 36 48.5 54.5t51 33.5t71.5 15q58 0 106.5 -11.5t89.5 -36.5t64.5 -69.5t23.5 -104.5z" />
    <glyph glyph-name="six" unicode="6" horiz-adv-x="697" 
d="M636 111q0 -9 -23 -34.5t-50.5 -54.5t-34.5 -40q-11 -20 -20 -20q-10 0 -23 19.5t-16 19.5h-338q-22 0 -59.5 -19t-46.5 -19q-17 0 -17 122q0 85 18 170t56.5 165t93 141.5t133.5 98.5t171 37q48 0 48 -16q0 -15 -59 -26q-58 -8 -136.5 -64.5t-103.5 -107.5
q75 -20 169.5 -101t144.5 -156q11 -17 26 -50t17 -38q4 -7 27 -12t23 -15zM476 76q0 11 -18 69q-34 100 -98 184.5t-149 126.5q-73 -92 -73 -368q0 -17 9.5 -36t24.5 -19h256q19 0 33.5 12t14.5 31z" />
    <glyph glyph-name="seven" unicode="7" horiz-adv-x="653" 
d="M625 511l-3 -8q-4 -2 -6 -2q-6 0 -17.5 2.5t-16.5 2.5q-16 0 -19 -7l-79 -182q77 0 77 -14q0 -17 -89 -17q-83 -178 -83 -181q0 -7 8 -16.5t8 -15.5q0 -27 -40 -69.5t-66 -42.5q-21 0 -49 28t-28 49q0 16 14 30t18 22l81 184q-82 0 -147 -112q-2 -6 -7 -6q-9 0 -26 44.5
t-17 57.5q0 11 5.5 19.5t17 14.5t24 11t30.5 7.5t32 4t33.5 2t30 0.5h27h18.5l91 214q11 11 11 29q0 13 -7 23t-20 10h-258q-6 0 -15 -18t-18.5 -40.5t-11.5 -26.5q-17 -28 -59.5 -73.5t-62.5 -45.5q-2 0 -6 2q-3 3 -3 11q0 14 14.5 62t14.5 81q0 27 -8.5 58t-8.5 32
q0 16 17 16q9 0 40.5 -13.5t50.5 -13.5h352q5 0 13.5 13t17.5 13q2 0 8 -3q25 -23 71 -72.5t46 -63.5z" />
    <glyph glyph-name="eight" unicode="8" horiz-adv-x="651" 
d="M594 150q0 -42 -29.5 -76t-73.5 -53.5t-89 -29.5t-82 -10q-91 0 -201 39q-10 3 -27 8t-25.5 8t-18.5 10t-14 18.5t-4 29.5q0 17 2 40.5t11.5 50.5t24.5 27q20 0 40 -38l77 85q-85 24 -135 68.5t-50 122.5q0 54 28.5 93t75 58t93.5 27.5t97 8.5q29 0 85 -7t79 -7
q20 0 38.5 15t22.5 15q13 0 13 -33q0 -40 -13 -96t-39 -56q-8 0 -16.5 12.5t-13.5 14.5q-8 -3 -113 -125q115 -8 186 -60t71 -160zM412 516q0 29 -171 29q-28 0 -58 -3t-67.5 -12t-61 -29.5t-23.5 -50.5q0 -75 205 -75q39 0 59 1q2 2 16.5 18.5t30 34.5t32.5 37t27.5 33
t10.5 17zM562 150q0 23 -28 40.5t-73.5 27.5t-88 16t-88 10t-56.5 6q-62 -66 -93 -100q22 -43 99 -62.5t146 -19.5q24 0 50 3t58.5 10.5t53 25.5t20.5 43z" />
    <glyph glyph-name="nine" unicode="9" horiz-adv-x="684" 
d="M631 555q0 -119 -38 -227t-106 -189.5t-171 -129.5t-225 -48q-53 0 -53 14t43 19.5t72 5.5q49 0 123.5 55t116.5 105q-75 20 -162.5 94t-134.5 147q-10 15 -22.5 44.5t-19.5 41.5q-4 7 -27 12t-23 15q0 9 23 34.5t50.5 54.5t34.5 40q11 20 20 20q10 0 23 -19.5t16 -19.5
h338q22 0 59.5 19t46.5 19q16 0 16 -107zM502 537q0 17 -9.5 36t-24.5 19h-256q-19 0 -33.5 -12t-14.5 -31q0 -9 17 -69q30 -97 88.5 -174.5t141.5 -118.5q91 114 91 350z" />
    <glyph glyph-name="colon" unicode=":" horiz-adv-x="210" 
d="M146 365v-3q0 -16 -1 -24.5t-6.5 -12t-8 -4.5t-15.5 0t-19 1q-8 0 -24.5 -2.5t-24.5 -2.5q-32 0 -32 25q0 8 3.5 24t3.5 25q0 7 -3 21t-3 21q0 8 4.5 13t13 6.5t15 1.5t17.5 -0.5t14 -0.5q5 0 16.5 0.5t15.5 0t11.5 -1.5t10 -3.5t6.5 -7.5t5 -12.5t1 -18.5v-45zM152 40
v-3q0 -16 -1 -24.5t-6.5 -12t-8 -4.5t-15.5 0t-19 1q-8 0 -24.5 -2.5t-24.5 -2.5q-32 0 -32 25q0 8 3.5 24t3.5 25q0 7 -3 21t-3 21q0 8 4.5 13t13 6.5t15 1.5t17.5 -0.5t14 -0.5q5 0 16.5 0.5t15.5 0t11.5 -1.5t10 -3.5t6.5 -7.5t5 -12.5t1 -18.5v-45z" />
    <glyph glyph-name="semicolon" unicode=";" horiz-adv-x="236" 
d="M154 368v-3q0 -16 -1 -24.5t-6.5 -12t-8 -4.5t-15.5 0t-19 1q-8 0 -24.5 -2.5t-24.5 -2.5q-32 0 -32 25q0 8 3.5 24t3.5 25q0 7 -3 21t-3 21q0 8 4.5 13t13 6.5t15 1.5t17.5 -0.5t14 -0.5q5 0 16.5 0.5t15.5 0t11.5 -1.5t10 -3.5t6.5 -7.5t5 -12.5t1 -18.5v-45zM181 6
q0 -26 -11 -46t-32 -34.5t-40 -23t-46 -17.5q-4 -1 -6 -1q-1 0 -1 1q0 2 35 38.5t35 52.5q0 6 -5 9.5t-13 4t-16 0.5t-16.5 -1t-11.5 -1q-10 0 -16.5 8t-9 24t-3 28t0.5 30.5t1 21.5q0 16 7 22.5t23 6.5l22 1q21 1 33.5 0t31 -3.5t27.5 -10.5t9 -20q-2 -18 -2 -27
q0 -11 2 -32t2 -31z" />
    <glyph glyph-name="less" unicode="&#x3c;" horiz-adv-x="530" 
d="M416 419q0 -8 -16 -11q-13 -2 -45 -6t-41 -5.5t-31.5 -7t-35 -13t-32 -20.5t-40.5 -31q58 -19 121.5 -65.5t99.5 -96.5q6 -10 6 -16q0 -10 -8 -10q-2 0 -6 2q-27 16 -58.5 37t-43 28t-35 15.5t-50.5 11t-73 3.5q-23 1 -19 32q-5 0 -22 -18t-23 -18q-4 0 -4 6q0 27 59 101
t125 135.5t84 61.5q11 0 19 -22t20.5 -47.5t32.5 -32.5q16 -5 16 -13z" />
    <glyph glyph-name="equal" unicode="=" horiz-adv-x="586" 
d="M510 316q0 -14 -38 -19.5t-68 -5.5q-126 0 -265 90q-19 11 -19 20q0 6 13 6q19 0 45 -13q40 -20 116 -20q86 0 116 34q1 1 14 12.5t21 11.5q11 0 17 -29q3 -19 25.5 -49.5t22.5 -37.5zM490 248q0 -25 -56.5 -41.5t-107.5 -21.5t-80 -5q-47 0 -121 11t-74 33q0 7 23 33
t27 48q4 28 14 28q8 0 19 -14.5t13 -15.5q47 -31 108 -51.5t113 -20.5q23 0 62.5 10t55.5 10q4 0 4 -3z" />
    <glyph glyph-name="greater" unicode="&#x3e;" horiz-adv-x="536" 
d="M448 239q0 -6 -4 -6q-5 0 -22.5 18.5t-22.5 17.5v-9q1 -13 -3 -18t-16 -5q-49 0 -79 -3t-63.5 -18.5t-49.5 -26t-68 -47.5q-4 -2 -6 -2q-8 0 -8 10q0 6 6 16q36 50 99.5 96.5t121.5 65.5q-21 18 -40.5 31t-32 20.5t-35 13t-31.5 7t-41 5.5t-45 6q-16 3 -16 11t16 13
q20 7 32.5 32.5t20.5 47.5t19 22q18 0 84 -61.5t125 -135.5t59 -101z" />
    <glyph glyph-name="question" unicode="?" horiz-adv-x="630" 
d="M544 520q0 -41 -17 -79t-43.5 -69t-54.5 -59.5t-54.5 -63t-39.5 -68.5q-24 -61 -36 -61q-5 0 -9.5 6.5t-7 13.5t-5.5 16.5t-4 11.5q-15 34 -20 53t-5 52q0 14 43 63t86.5 108.5t43.5 100.5q0 35 -30 54t-66 19q-59 0 -81.5 -31t-22.5 -92q0 -77 33 -143q-71 14 -111 84
t-40 149q0 74 32 74q9 0 22.5 -11t28.5 -11q19 0 56.5 6t56.5 6q40 0 75.5 -4.5t77.5 -16.5t67 -39.5t25 -68.5zM386 48v-8v-9.5t-0.5 -9.5t-1.5 -10t-3.5 -7.5t-6 -5.5t-8.5 -2q-7 0 -21 2t-21 2t-21 -2t-21 -2q-10 0 -15 4q-4 8 -4 29q0 22 4 39q1 4 16.5 9.5t34 10.5
t23.5 9q2 2 15.5 16.5t19.5 14.5q10 0 10 -80z" />
    <glyph glyph-name="at" unicode="@" horiz-adv-x="733" 
d="M714 407q0 -92 -56.5 -162t-146.5 -70t-115 72l-86 -79q-90 68 -90 167q0 71 55.5 124.5t126.5 53.5q37 0 65 -18l20 21l14 -19l-15 -17l27 -28l-15 -12l-24 22q-22 -41 -22 -97q0 -30 5.5 -60t24.5 -58.5t49 -28.5q37 0 64 36t38 77.5t11 77.5q0 104 -71.5 168
t-176.5 64q-123 0 -208.5 -79t-85.5 -201q0 -83 47.5 -146.5t119.5 -94.5t154 -31q114 0 203 46l-87 -128q-109 -21 -185 -21q-142 0 -238 94t-96 236q0 154 110.5 259.5t265.5 105.5q132 0 225 -73t93 -201zM449 478q-23 14 -46 14q-49 0 -81 -45t-32 -96q0 -33 18.5 -58
t50.5 -25q18 0 33 9q-1 11 -1 34q0 95 58 167z" />
    <glyph glyph-name="A" unicode="A" horiz-adv-x="683" 
d="M682 -32q0 -6 -3 -6q-26 13 -92 114t-81 141h-252q-7 -12 -41.5 -82t-65.5 -114t-63 -59q-20 20 -53 63.5t-34 58.5q2 6 9 8q49 13 86 43.5t78 81.5q-2 0 -10.5 -0.5t-13.5 -0.5t-12 1.5t-10.5 5t-3.5 9.5q0 7 6 11t16 5.5t19 1.5t19.5 -1t13.5 -1q34 41 90 154t79 178
q-19 66 -19 71q0 1 5 1q14 0 70.5 -11t67.5 -16v-4q0 -3 -6.5 -20t-6.5 -28q0 -19 38.5 -148.5t54.5 -176.5q3 0 14.5 1t21 1t20 -1t17 -5.5t6.5 -11.5t-5 -11t-14.5 -5t-17.5 -1t-18 1t-13 1q39 -114 83 -194q21 -42 21 -55zM488 248q-96 193 -112 285q-7 -27 -16.5 -55.5
t-23.5 -62.5t-21.5 -53t-26.5 -61t-24 -53h43q2 2 19 19.5t30.5 29t20.5 11.5q5 0 15.5 -8t19 -17t20 -21t13.5 -14h43z" />
    <glyph glyph-name="B" unicode="B" 
d="M637 238q0 -4 -2 -6.5t-4 -4t-6 -2t-6.5 -0.5h-7h-5.5q-4 0 -7 -1t-6 -3t-5 -3.5t-5 -5.5t-4 -5.5t-3.5 -6t-3.5 -5.5q-45 -79 -160 -136t-211 -59l-58 -1q-8 -13 -41.5 -25.5t-52.5 -12.5q-23 0 -23 20v656q0 13 15 13q8 0 42.5 -13t59.5 -13h325q5 0 13.5 13t17.5 13
q2 0 8 -3q16 -14 36.5 -32.5t44 -45t23.5 -37.5l-3 -8q-5 -3 -24.5 -3.5t-27.5 -10.5q-45 -53 -108.5 -107t-109.5 -65l-86 -21q200 0 261 58q3 3 7 3q18 0 67.5 -59.5t49.5 -80.5zM471 583q0 10 -10 10h-275q-21 0 -32 -15t-11 -36v-225q105 19 192.5 88t132.5 167
q3 4 3 11zM496 279q0 3 -2 7h-351v-255q78 0 158 45.5t138 112.5q57 64 57 90z" />
    <glyph glyph-name="C" unicode="C" horiz-adv-x="691" 
d="M661 78q0 -35 -66.5 -60t-130 -33t-101.5 -8q-91 0 -145 23q-115 47 -167 109t-52 177q0 122 159 226q8 4 8 8t-9 4q-6 0 -13 -2t-12.5 -4.5t-10 -5t-7.5 -4.5l-2 -2q-16 0 -51.5 59t-35.5 78q0 9 6 9q18 0 96.5 -33.5t104.5 -33.5q33 0 113.5 19.5t132.5 19.5h19.5h22
t20 -1t22 -3t18.5 -5t19 -9t15 -13q2 -2 3 -2q3 0 11.5 17.5t13.5 17.5q10 0 10 -14q0 -28 -16 -84.5t-16 -87.5q0 -4 1 -12t1 -12q0 -24 -14 -24q-10 0 -25 50q-27 79 -231 79q-28 0 -42 -1q-59 -3 -122.5 -38.5t-108 -93.5t-44.5 -118q0 -66 43.5 -116.5t104.5 -74
t124 -23.5q74 0 143.5 29t110.5 84q11 14 16.5 46.5t10 56.5t13.5 24q7 -3 7 -18q0 -10 -2 -31t-2 -32q0 -31 9 -48.5t19.5 -23t19.5 -21.5t9 -44z" />
    <glyph glyph-name="D" unicode="D" horiz-adv-x="674" 
d="M637 317q0 -65 -21 -116.5t-59.5 -85.5t-84.5 -57.5t-104.5 -35.5t-112 -17t-112.5 -5q-22 0 -60.5 -19.5t-43.5 -19.5q-8 0 -23.5 15.5t-15.5 23.5q0 3 6.5 20t13 43t6.5 49v435q0 32 -15 63.5t-15 33.5l4 6q5 3 17 3q29 0 86.5 -14.5t87.5 -14.5q192 0 284 -26
q9 -3 17 -3q16 0 40 15.5t36 15.5q16 0 16 -9q0 -7 -11.5 -27t-11.5 -27l8 -15q8 -16 19 -41t22 -55.5t19 -67t8 -67.5zM520 317q0 71 -27.5 125.5t-75.5 86.5t-107 47.5t-127 15.5q-20 0 -30 -14t-10 -35v-465q0 -21 10.5 -34t30.5 -13q91 0 165.5 30t122.5 96.5t48 159.5z
" />
    <glyph glyph-name="E" unicode="E" 
d="M637 9q0 -5 -6 -9l-488 -1q-22 0 -60.5 -19.5t-43.5 -19.5q-8 0 -23.5 15.5t-15.5 23.5q0 3 6.5 20t13 43t6.5 49v418q0 29 -15 64.5t-15 36.5l4 6q2 2 8 2q8 0 33 -16t63 -32.5t78 -16.5h189l29 23q28 24 49 39t29 15q10 0 48.5 -42.5t38.5 -56.5q0 -5 -6 -9h-379
q-18 0 -27.5 -17t-9.5 -37v-171h228l29 23q28 24 49 39t29 15q10 0 48.5 -42.5t38.5 -56.5q0 -5 -6 -9h-416v-200q0 -22 9.5 -38t29.5 -16l261 -1l29 23q28 24 49 39t29 15q10 0 48.5 -42.5t38.5 -56.5z" />
    <glyph glyph-name="F" unicode="F" horiz-adv-x="603" 
d="M585 543q0 -3 -2 -9q-36 -36 -87 -61t-98 -25q-16 0 -23 4q29 13 57.5 51.5t28.5 68.5q0 8 -6.5 15t-13.5 7q-3 0 -4 -1h-257q-18 0 -27 -16t-9 -36v-263h150q95 77 107 77q10 0 48.5 -43t38.5 -56q0 -5 -6 -9h-338v-138q0 -12 8.5 -23t8.5 -14q0 -22 -43.5 -66.5
t-62.5 -44.5q-13 0 -33.5 16t-20.5 29q0 10 13 34.5t13 36.5v470q0 22 -7 43.5t-15 36t-8 17.5l4 6q5 3 17 3q29 0 86.5 -14.5t87.5 -14.5h247q26 0 59.5 14t37.5 14q14 0 31.5 -45t17.5 -64z" />
    <glyph glyph-name="G" unicode="G" horiz-adv-x="699" 
d="M657 301q0 -3 -8 -15q-18 -22 -18 -95q0 -19 1.5 -55.5t1.5 -55.5q0 -45 -13 -45q-8 0 -24 21t-19 21q-8 0 -8 -21q-2 -24 -28 -40.5t-65 -23.5t-68 -9.5t-54 -2.5q-91 0 -156 20q-86 26 -142.5 111t-56.5 177q0 122 159 226q8 4 8 8t-9 4q-20 0 -42 -17q-1 -1 -3 -1
q-17 0 -52 59t-35 79q0 8 6 8q19 0 97 -33.5t104 -33.5q33 0 113.5 19.5t132.5 19.5h19.5h22t20 -1t22 -3t18.5 -5t19 -9t15 -13q2 -2 3 -2q3 0 11.5 17.5t13.5 17.5q10 0 10 -14q0 -28 -16 -85t-16 -87q0 -4 1 -12t1 -12q0 -24 -14 -24q-10 0 -25 50q-27 79 -231 79
q-28 0 -42 -1q-92 -5 -184 -82.5t-92 -166.5q0 -66 41.5 -119t102 -79t124.5 -26q43 0 96 16t97 51t44 79q0 30 -44.5 44.5t-109 19t-75.5 7.5q-19 4 -19 12q0 24 89 39t139 15q137 0 137 -31z" />
    <glyph glyph-name="H" unicode="H" horiz-adv-x="653" 
d="M619 561q0 -4 -10 -18t-10 -35v-399q0 -11 8.5 -23t8.5 -14q0 -22 -43.5 -66.5t-62.5 -44.5q-14 0 -34 16t-20 30q0 9 13 34t13 36v209h-338v-177q0 -11 8.5 -23t8.5 -14q0 -22 -43.5 -66.5t-62.5 -44.5q-14 0 -34 16t-20 30q0 9 13 34t13 36v446q0 30 -13 65t-13 43
q0 20 15 20q19 0 83.5 -36.5t64.5 -51.5q0 -4 -10 -18t-10 -35v-193h87l16.5 16.5l24.5 24.5t24 20.5t19 9.5q4 0 12.5 -6t19 -15.5t19 -18.5t18 -19t11.5 -12h87v204q0 30 -13 65t-13 43q0 20 15 20q19 0 83.5 -36.5t64.5 -51.5z" />
    <glyph glyph-name="I" unicode="I" horiz-adv-x="236" 
d="M177 566q0 -4 -10 -18t-10 -35v-403q0 -12 8.5 -23t8.5 -14q0 -22 -43.5 -66.5t-62.5 -44.5q-14 0 -34 16.5t-20 30.5q0 8 13 32.5t13 36.5v448q0 29 -13 64.5t-13 43.5q0 20 15 20q19 0 83.5 -36.5t64.5 -51.5z" />
    <glyph glyph-name="J" unicode="J" horiz-adv-x="520" 
d="M490 565q0 -4 -10 -18t-10 -35v-266q0 -116 -69 -189.5t-184 -73.5q-35 0 -64 15.5t-44.5 35t-34.5 41t-34 29.5t-29.5 23.5t-14.5 29.5q0 9 12.5 14.5t33.5 6.5t39 1t38 -1t22 -1q9 0 25 3t23 3q14 0 14 -15q0 -9 -14.5 -18.5t-29.5 -21t-15 -25.5q0 -39 26 -64t65 -25
q58 0 88 46.5t30 107.5v353q0 32 -13 68.5t-13 43.5q0 20 15 20q19 0 83.5 -36.5t64.5 -51.5z" />
    <glyph glyph-name="K" unicode="K" horiz-adv-x="629" 
d="M619 150q0 -35 -50 -94q-5 -6 -13.5 -28t-17 -39.5t-15.5 -17.5q-9 0 -20.5 10t-14.5 12q-17 9 -34.5 20.5t-31.5 21.5t-32 25.5t-28.5 24.5t-29.5 28l-27 27t-28 30t-25.5 28t-27 30.5t-25.5 28.5q-9 -1 -27 -5t-28 -5v-138q0 -12 8.5 -23t8.5 -14q0 -22 -43.5 -66.5
t-62.5 -44.5q-14 0 -34 16t-20 30q0 9 13 34t13 36v442q0 32 -13 68.5t-13 43.5q0 20 15 20q19 0 83.5 -36.5t64.5 -51.5q0 -4 -10 -18t-10 -35v-81q36 -72 68 -104q72 55 145.5 145t73.5 154q0 30 19 30q10 0 25 -17q51 -62 85 -91q20 -15 21 -27l-3 -6q-5 -5 -29 -5
q-10 0 -15 -5q-83 -80 -141 -125t-145 -92q59 -62 132.5 -104t144.5 -42q19 0 50.5 9.5t36.5 9.5q7 0 7 -9zM176 299q-15 22 -32 65v-78q13 0 32 13z" />
    <glyph glyph-name="L" unicode="L" horiz-adv-x="584" 
d="M571 109q0 -21 -34 -74.5t-52 -53.5q-8 0 -26 9.5t-32 9.5h-228q-47 0 -69 -5t-71 -24q-25 -9 -36 -9q-22 0 -22 21q0 8 3 17q22 67 22 133v387q0 32 -13 68.5t-13 43.5q0 20 15 20q19 0 83.5 -36.5t64.5 -51.5q0 -4 -10 -18.5t-10 -34.5v-418q0 -21 12.5 -41.5
t31.5 -20.5h225q16 0 27 8t11 24q0 49 -21 94t-42 70t-21 27q0 4 8 4q44 0 120.5 -57.5t76.5 -91.5z" />
    <glyph glyph-name="M" unicode="M" horiz-adv-x="992" 
d="M985 -33q0 -5 -4 -5q-6 0 -15 9q-99 95 -172 233.5t-115 289.5q-8 -15 -31.5 -59t-36 -66t-33.5 -57t-41.5 -62.5t-42.5 -52.5q0 -1 3.5 -9.5t5 -13.5t5.5 -14t7.5 -14.5t7.5 -11.5t8.5 -9t9.5 -3q6 0 17 7t19 7t8 -10q0 -21 -45 -91.5t-60 -70.5q-23 0 -49.5 48
t-49 119.5t-36 121t-21.5 85.5q-32 -159 -204 -351l-6 -8q-6 -8 -10.5 -12.5t-8.5 -4.5q-5 0 -50 64.5t-45 75.5q0 14 14 14q7 0 22.5 -4t23.5 -4q53 0 108.5 51t91 112.5t52.5 114.5q-5 19 -15.5 75t-21 100t-20.5 64q0 26 31 26q4 0 46.5 -18t71.5 -18q4 0 11 1t10 1
q15 0 15 -21q0 -4 -3 -10q-28 -28 -28 -52q0 -58 23.5 -151t49.5 -151q105 135 105 385v6v7.5t1 6.5t3.5 5.5t6.5 1.5q21 0 41 -20q4 4 5 8t0 11.5t-1 9.5q0 10 10 10q20 0 63.5 -23.5t66.5 -41.5q4 -3 6.5 -7.5t4 -8t2 -9.5t0.5 -9v-10v-9q0 -138 47.5 -268t134.5 -290
q7 -14 7 -20z" />
    <glyph glyph-name="N" unicode="N" 
d="M618 563q0 -4 -10 -18.5t-10 -34.5v-401q0 -12 8.5 -23t8.5 -14q0 -22 -43.5 -66.5t-62.5 -44.5q-14 0 -31 14t-17 28q0 17 20 51q-89 18 -200 127.5t-138 199.5v-272q0 -12 8.5 -23t8.5 -14q0 -22 -43.5 -66.5t-62.5 -44.5q-13 0 -33.5 16t-20.5 29q0 10 13 34.5
t13 36.5v441q0 32 -13 68.5t-13 43.5q0 20 15 20q19 0 83.5 -36.5t64.5 -51.5q0 -4 -2 -8t-6 -8t-6 -7q-6 -11 -6 -81q2 4 14 35.5t24.5 51.5t25.5 20q6 0 10 -6q6 -22 18 -70.5t18 -71t19 -64.5t24 -65t30 -57.5t40 -57t50.5 -47.5t64.5 -45v438q0 32 -13 68.5t-13 43.5
q0 20 15 20q19 0 83.5 -36.5t64.5 -51.5z" />
    <glyph glyph-name="O" unicode="O" horiz-adv-x="653" 
d="M596 317q0 -82 -33.5 -158t-100.5 -127t-151 -51q-125 0 -204.5 103.5t-79.5 232.5q0 68 29 138q33 13 63 42t46.5 53t40.5 65q52 22 105 22q34 0 84 -18t76 -18q10 0 30 2.5t30 2.5q4 -2 4 -6q0 -6 -13 -22t-13 -26q0 -4 5 -12q82 -101 82 -223zM479 317q0 40 -9 86
t-27.5 93.5t-53 78.5t-78.5 31t-78 -31.5t-52.5 -78.5t-27.5 -93.5t-9 -85.5q0 -40 8.5 -88.5t26.5 -99t52.5 -84t79.5 -33.5t79.5 33.5t52.5 84.5t27 99t9 88z" />
    <glyph glyph-name="P" unicode="P" horiz-adv-x="653" 
d="M631 532l-3 -8q-5 -3 -24.5 -3.5t-27.5 -10.5q-18 -100 -85 -176t-156 -117t-191 -53v-55q0 -12 8.5 -23t8.5 -14q0 -21 -43.5 -66t-62.5 -45q-14 0 -34 16t-20 30q0 9 13 34t13 36v470q0 31 -15 64l-15 33l4 6q5 3 17 3q29 0 86.5 -14.5t87.5 -14.5h296q5 0 13.5 13
t17.5 13q2 0 8 -3q103 -93 104 -115zM467 561q0 7 -2 13t-6.5 9l-7.5 5t-11 3t-11 1h-12.5h-11.5h-230q-14 0 -22.5 -10.5t-8.5 -24.5v-361q61 5 138.5 70t131 150t53.5 145z" />
    <glyph glyph-name="Q" unicode="Q" horiz-adv-x="651" 
d="M595 319q0 -69 -25.5 -136t-72.5 -114q41 -51 83 -86q9 -2 9 -8q-7 -14 -20 -14q-27 0 -116 68q-61 -46 -142 -46q-84 0 -150.5 51t-99.5 127t-33 158q0 24 7 75t16 60q33 13 63 42t46.5 53t40.5 65q62 25 98 25q87 0 139 -37q22 -5 39 -5q10 0 30 2.5t30 2.5q4 -2 4 -6
q0 -6 -13 -22t-13 -26q0 -4 5 -12q75 -104 75 -217zM479 319q0 38 -9.5 85t-28 94t-53 78.5t-77.5 31.5q-44 0 -78 -31.5t-52 -78.5t-27 -93.5t-9 -85.5q0 -41 8.5 -88.5t26 -98.5t52 -84.5t79.5 -33.5q19 0 39 10t29 18.5t29 28.5q-5 5 -13 5q-5 0 -13 -2t-13 -2
q-8 0 -8 14q0 18 29.5 76.5t42.5 58.5l1 -1q2 0 4.5 -15.5t5.5 -33t6 -22.5q29 84 29 170z" />
    <glyph glyph-name="R" unicode="R" horiz-adv-x="698" 
d="M699 -36q-112 15 -243 79.5t-183 146.5q-39 -16 -130 -26v-55q0 -13 8.5 -23t8.5 -14q0 -21 -43.5 -66t-62.5 -45q-15 0 -34.5 16.5t-19.5 31.5q0 7 13 32t13 36v470q0 31 -15 63t-15 34l4 6q5 3 17 3q29 0 86.5 -14.5t87.5 -14.5h296q5 0 13.5 13t17.5 13q2 0 8 -3
q102 -87 104 -115l-3 -8q-5 -3 -24.5 -3.5t-27.5 -10.5q-14 -78 -73 -156t-130 -115q40 -71 138 -149t189 -126zM465 568q0 24 -55 24h-236q-14 0 -22.5 -10t-8.5 -25v-361q43 0 100 43q-8 16 -31 23.5t-23 14.5q0 13 15 27.5t37.5 29t28.5 20.5q4 4 16 18t22.5 25t16.5 12
q8 2 12 2q9 0 9 -9q0 -7 -2.5 -21.5t-2.5 -22.5q0 -17 4 -29q39 41 79.5 116.5t40.5 122.5z" />
    <glyph glyph-name="S" unicode="S" horiz-adv-x="687" 
d="M636 176q0 -52 -40 -91.5t-100.5 -60t-117 -30.5t-102.5 -10q-64 0 -206 32h-6q-9 0 -24.5 -26.5t-20.5 -26.5q-13 0 -13 44q0 20 6 60.5t6 61.5q0 17 -9.5 46t-9.5 44q0 19 11 19q16 0 49 -40q91 -104 302 -104q21 0 55.5 3.5t78 11t74 24t30.5 38.5q0 29 -33 46.5
t-86 25.5t-117 14t-128 16.5t-117 28.5t-86 55t-33 90q0 37 17 72t45 57q3 3 14 8.5t14 8.5q1 1 1 5q0 2 -16 17.5t-16 24.5q0 10 18 10q9 0 27.5 -13t37.5 -13q26 0 53 3t62.5 8.5t52.5 7.5q58 7 151 7h32q25 0 35.5 -0.5t26 -6.5t27.5 -19q3 -3 4 -3q5 0 19 15.5t20 15.5
q10 0 10 -14q0 -27 -16 -84t-16 -88q0 -4 1 -12t1 -12q0 -24 -15 -24q-4 0 -10 10t-12.5 24.5t-7.5 15.5q-18 34 -83.5 53.5t-117.5 23.5t-104 4q-30 0 -58.5 -2.5t-68 -10.5t-63.5 -28.5t-24 -50.5q0 -27 33 -42.5t85.5 -21.5t116 -10.5t127 -15t116 -30t85.5 -60.5
t33 -101z" />
    <glyph glyph-name="T" unicode="T" horiz-adv-x="722" 
d="M704 583q0 -59 -49.5 -115t-108.5 -56q-5 0 -7 5q29 20 48 57.5t19 73.5q0 15 -6 30t-19 15h-131q-33 0 -33 -37v-447q0 -12 8.5 -23t8.5 -14q0 -22 -43.5 -66.5t-62.5 -44.5q-13 0 -33.5 16t-20.5 29q0 10 13 34.5t13 36.5v482q0 34 -15 34h-111q-6 0 -15 -18
t-18.5 -40.5t-11.5 -26.5q-17 -28 -59.5 -73.5t-62.5 -45.5q-2 0 -6 2q-3 3 -3 11q0 14 14.5 62t14.5 81q0 27 -8.5 58t-8.5 32q0 16 17 16q9 0 40.5 -13.5t50.5 -13.5h156q-3 6 -3 13q0 14 21 14q20 0 58.5 -13.5t48.5 -13.5h150q22 31 72 31q83 0 83 -72z" />
    <glyph glyph-name="U" unicode="U" horiz-adv-x="653" 
d="M639 562q0 -4 -4.5 -10t-8.5 -6q-6 0 -16.5 4t-16.5 4q-7 0 -11 -8q5 -18 8 -39t4.5 -35.5t2.5 -41t1 -35.5v-41.5v-36.5h-1q0 -82 -33.5 -158t-100.5 -127t-151 -51q-22 0 -65.5 6t-64.5 6q-8 0 -22 -3.5t-22 -3.5q-30 0 -30 17q0 11 18 22t18 18q0 4 -2 7.5t-6.5 8
l-5.5 5.5q-47 50 -75.5 129t-28.5 149v175q0 32 -13 68.5t-13 43.5q0 20 15 20q19 0 83.5 -36.5t64.5 -51.5q0 -4 -10.5 -18t-9.5 -35l3 -191q0 -40 9 -88t27 -99t52 -84.5t79 -33.5t79.5 33.5t52.5 84.5t27 99t9 88v126q0 37 -16 96.5t-36 84.5q-7 9 -7 15q0 17 30 17
q24 0 105.5 -38.5t81.5 -55.5z" />
    <glyph glyph-name="V" unicode="V" horiz-adv-x="631" 
d="M619 510l-3 -6q-5 -5 -29 -5q-10 0 -15 -5q-73 -70 -125.5 -178.5t-74.5 -217.5q3 -6 17 -19t14 -27q0 -4 -14 -16.5t-30 -30t-21 -31.5q-10 -10 -19 -10t-19 10q-39 39 -96 142t-86 175q-21 52 -53.5 151t-49.5 143l-15 39q0 26 31 26q3 0 46 -18t72 -18q3 0 10 1t11 1
q15 0 15 -21q0 -4 -3 -10q-28 -28 -28 -52q0 -5 2 -13q113 -319 191 -401q8 103 41 228t77 226q4 8 5 14t0 15t-1 13q0 30 19 30q10 0 25 -17q51 -62 85 -91q19 -17 21 -27z" />
    <glyph glyph-name="W" unicode="W" horiz-adv-x="873" 
d="M864 515l-3 -6q-5 -5 -29 -5q-10 0 -15 -5q-27 3 -75 -75t-73 -132q-29 -70 -46 -131q-24 -94 -23 -164v-10q0 -30 -15 -30q-11 0 -11 24v109q-11 -22 -34 -42t-44 -20q-5 0 -11 3v17q1 70 -25 167.5t-70 129.5q-91 -105 -108 -199q2 -5 16 -25.5t14 -27.5q0 -4 -5 -9
q-12 -16 -21.5 -33.5t-20 -41t-16.5 -35.5q-5 -10 -13 -10q-7 0 -13 10q-106 177 -165 416q-5 21 -14 72.5t-17 78.5q-11 40 -29 83q0 26 31 26q4 0 46.5 -18t71.5 -18q3 0 10 1t11 1q15 0 15 -21q0 -4 -3 -10q-28 -28 -28 -52q0 -66 33.5 -179.5t69.5 -182.5q19 106 72 245
q-2 2 -10 9t-14 13t-11.5 13t-5.5 10q0 7 9 7q17 0 42 -18q1 3 7.5 15.5t13 23.5t14 23t14 19.5t10.5 7.5q13 0 27.5 -21.5t30.5 -51.5t28 -41q17 -17 18 -25q-2 -13 -42 -13q-16 0 -20 -5q20 -17 41.5 -41.5t31 -37.5t35 -51.5t28.5 -43.5q30 181 140 412q0 30 19 30
q12 0 25 -17q51 -62 85 -91q20 -15 21 -27z" />
    <glyph glyph-name="X" unicode="X" horiz-adv-x="619" 
d="M605 519l-3 -6q-4 -5 -29 -5q-10 0 -31.5 -19.5t-48.5 -51t-49.5 -59t-46 -58.5t-25.5 -34q21 -31 69.5 -93t58.5 -62q9 0 25.5 20.5t24.5 20.5q14 0 14 -12q0 -6 -9 -29t-10 -28q-11 -42 -11 -106v-10q0 -12 -10.5 -20.5t-22.5 -8.5t-42.5 31.5t-67.5 78.5t-60 77.5
t-39 52.5q-238 -238 -284 -238q-15 0 -15 12q0 6 4 12t8.5 9.5t12 9t9.5 7.5q105 82 213 256q-2 4 -32.5 49t-59 88.5t-61 94t-52.5 85t-20 41.5q0 16 11 25t28 9t51 -6t52 -6q11 0 28.5 6.5t25.5 6.5t8 -9q0 -14 -22 -32t-22 -31q0 -7 11.5 -28t31 -51.5t36 -55.5t36 -53.5
t22.5 -32.5q142 235 143 258q3 30 19 30q12 0 25 -17q51 -62 85 -91q20 -15 21 -27z" />
    <glyph glyph-name="Y" unicode="Y" horiz-adv-x="635" 
d="M629 519l-3 -6q-5 -5 -29 -5q-14 0 -21 -14q-6 -12 -17 -37.5t-17 -37.5q-87 -180 -207 -282q-173 -148 -318 -182l-7 -1q-13 0 -13 9q0 12 32 26q143 71 249 205q-69 42 -132.5 151.5t-101.5 214.5q-3 8 -22 40t-19 37q0 14 9 14q24 0 73 -5t73 -5q6 0 10 -5t5 -14
t1 -16.5t-1 -17t-1 -12.5q0 -95 34 -199t97 -154q63 80 114.5 194t61.5 207q3 30 19 30q10 0 25 -17q57 -67 85 -91q19 -17 21 -27z" />
    <glyph glyph-name="Z" unicode="Z" horiz-adv-x="651" 
d="M634 9q0 -5 -6 -9h-417q-9 0 -27 -21t-30 -21q-14 0 -73 55.5t-59 66.5q0 10 8.5 14t19.5 4t25 4t22 14l350 415q10 11 10 30q0 13 -6.5 22.5t-19.5 9.5h-258q-6 0 -15 -18t-18.5 -40.5t-11.5 -26.5q-17 -28 -59.5 -73.5t-62.5 -45.5q-2 0 -6 2q-3 3 -3 11q0 14 14.5 62
t14.5 81q0 27 -8.5 58t-8.5 32q0 16 17 16q8 0 40 -13.5t51 -13.5h352q5 0 13.5 13t17.5 13q2 0 8 -3q24 -22 70.5 -72t46.5 -64l-3 -8q-3 -2 -26 -2t-31 -10q-5 -6 -50.5 -59t-93.5 -110t-99.5 -119t-84.5 -105t-33 -49q0 -7 5.5 -12.5t13.5 -5.5h217l28 23q29 24 50 39
t29 15q10 0 48.5 -42.5t38.5 -56.5z" />
    <glyph glyph-name="bracketleft" unicode="[" horiz-adv-x="403" 
d="M360 681q0 -10 -14.5 -33t-14.5 -44q0 -15 9 -42.5t9 -40.5q0 -4 -3 -4q-1 0 -3 1t-4.5 2t-3.5 1q-25 14 -40 36.5t-19.5 40.5t-11.5 31.5t-19 13.5q-53 0 -53 -49v-535q0 -82 33 -82q23 0 59 30.5t57 30.5q8 0 8 -6q0 -5 -4.5 -13t-11.5 -17.5t-9 -12.5q-3 -5 -7 -24.5
t-9.5 -34.5t-13.5 -15q-16 0 -55 15.5t-60 15.5q-24 0 -45.5 -15.5t-37.5 -31t-26 -15.5q-16 0 -16 28q0 17 10.5 60t10.5 71v446q0 29 -7 88t-7 88q0 28 17 28q1 0 34 -13t65 -13q66 0 154 23q15 3 16 3q13 0 13 -12z" />
    <glyph glyph-name="backslash" unicode="\" 
d="M563 -19q0 -6 -1 -6t-2 3l-1 2q-5 11 -19 52q-36 89 -79 159q-132 209 -354 298q-8 3 -18.5 3t-23 -1.5t-18.5 -1.5q-15 0 -15 10q0 26 41.5 74.5t68.5 48.5t56 -29q149 -143 232.5 -280t132.5 -329v-3z" />
    <glyph glyph-name="bracketright" unicode="]" horiz-adv-x="406" 
d="M323 -79q0 -25 -20 -25q-11 0 -53 21.5t-68 21.5q-17 0 -50 -12t-49 -12q-7 0 -12 15t-9.5 34.5t-7.5 24.5q-2 3 -9 12.5t-11.5 17.5t-4.5 13q0 6 8 6q21 0 57 -30.5t59 -30.5q33 0 33 82v535q0 49 -53 49q-12 0 -19 -13t-11 -31t-19.5 -40.5t-40.5 -37.5q-6 -4 -11 -4
q-3 0 -3 5q0 13 9 40t9 41q0 22 -14.5 44.5t-14.5 33.5q0 12 13 12q1 0 16 -3q98 -23 154 -23q32 0 65 13t34 13q17 0 17 -28q0 -29 -7 -88t-7 -88v-446q0 -27 10 -68t10 -54z" />
    <glyph glyph-name="asciicircum" unicode="^" horiz-adv-x="500" 
d="M526 284h-44l-192 296l-198 -296h-118l280 416h7z" />
    <glyph glyph-name="underscore" unicode="_" 
d="M528 9q0 -5 -6 -9h-413q-18 0 -18 13q0 18 26 18h217q1 1 28 24t48.5 38t30.5 15q11 0 49 -41.5t38 -57.5z" />
    <glyph glyph-name="grave" unicode="`" horiz-adv-x="500" 
d="M361 722l-5 -21q-127 14 -217 110l50 76q19 -50 66.5 -93t105.5 -72z" />
    <glyph glyph-name="a" unicode="a" horiz-adv-x="683" 
d="M682 -32q0 -6 -3 -6q-26 13 -92 114t-81 141h-252q-7 -12 -41.5 -82t-65.5 -114t-63 -59q-20 20 -53 63.5t-34 58.5q2 6 9 8q49 13 86 43.5t78 81.5q-2 0 -10.5 -0.5t-13.5 -0.5t-12 1.5t-10.5 5t-3.5 9.5q0 7 6 11t16 5.5t19 1.5t19.5 -1t13.5 -1q34 41 90 154t79 178
q-19 66 -19 71q0 1 5 1q14 0 70.5 -11t67.5 -16v-4q0 -3 -6.5 -20t-6.5 -28q0 -19 38.5 -148.5t54.5 -176.5q3 0 14.5 1t21 1t20 -1t17 -5.5t6.5 -11.5t-5 -11t-14.5 -5t-17.5 -1t-18 1t-13 1q39 -114 83 -194q21 -42 21 -55zM488 248q-96 193 -112 285q-7 -27 -16.5 -55.5
t-23.5 -62.5t-21.5 -53t-26.5 -61t-24 -53h43q2 2 19 19.5t30.5 29t20.5 11.5q5 0 15.5 -8t19 -17t20 -21t13.5 -14h43z" />
    <glyph glyph-name="b" unicode="b" 
d="M637 238q0 -4 -2 -6.5t-4 -4t-6 -2t-6.5 -0.5h-7h-5.5q-4 0 -7 -1t-6 -3t-5 -3.5t-5 -5.5t-4 -5.5t-3.5 -6t-3.5 -5.5q-45 -79 -160 -136t-211 -59l-58 -1q-8 -13 -41.5 -25.5t-52.5 -12.5q-23 0 -23 20v656q0 13 15 13q8 0 42.5 -13t59.5 -13h325q5 0 13.5 13t17.5 13
q2 0 8 -3q16 -14 36.5 -32.5t44 -45t23.5 -37.5l-3 -8q-5 -3 -24.5 -3.5t-27.5 -10.5q-45 -53 -108.5 -107t-109.5 -65l-86 -21q200 0 261 58q3 3 7 3q18 0 67.5 -59.5t49.5 -80.5zM471 583q0 10 -10 10h-275q-21 0 -32 -15t-11 -36v-225q105 19 192.5 88t132.5 167
q3 4 3 11zM496 279q0 3 -2 7h-351v-255q78 0 158 45.5t138 112.5q57 64 57 90z" />
    <glyph glyph-name="c" unicode="c" horiz-adv-x="691" 
d="M661 78q0 -35 -66.5 -60t-130 -33t-101.5 -8q-91 0 -145 23q-115 47 -167 109t-52 177q0 122 159 226q8 4 8 8t-9 4q-6 0 -13 -2t-12.5 -4.5t-10 -5t-7.5 -4.5l-2 -2q-16 0 -51.5 59t-35.5 78q0 9 6 9q18 0 96.5 -33.5t104.5 -33.5q33 0 113.5 19.5t132.5 19.5h19.5h22
t20 -1t22 -3t18.5 -5t19 -9t15 -13q2 -2 3 -2q3 0 11.5 17.5t13.5 17.5q10 0 10 -14q0 -28 -16 -84.5t-16 -87.5q0 -4 1 -12t1 -12q0 -24 -14 -24q-10 0 -25 50q-27 79 -231 79q-28 0 -42 -1q-59 -3 -122.5 -38.5t-108 -93.5t-44.5 -118q0 -66 43.5 -116.5t104.5 -74
t124 -23.5q74 0 143.5 29t110.5 84q11 14 16.5 46.5t10 56.5t13.5 24q7 -3 7 -18q0 -10 -2 -31t-2 -32q0 -31 9 -48.5t19.5 -23t19.5 -21.5t9 -44z" />
    <glyph glyph-name="d" unicode="d" horiz-adv-x="674" 
d="M637 317q0 -65 -21 -116.5t-59.5 -85.5t-84.5 -57.5t-104.5 -35.5t-112 -17t-112.5 -5q-22 0 -60.5 -19.5t-43.5 -19.5q-8 0 -23.5 15.5t-15.5 23.5q0 3 6.5 20t13 43t6.5 49v435q0 32 -15 63.5t-15 33.5l4 6q5 3 17 3q29 0 86.5 -14.5t87.5 -14.5q192 0 284 -26
q9 -3 17 -3q16 0 40 15.5t36 15.5q16 0 16 -9q0 -7 -11.5 -27t-11.5 -27l8 -15q8 -16 19 -41t22 -55.5t19 -67t8 -67.5zM520 317q0 71 -27.5 125.5t-75.5 86.5t-107 47.5t-127 15.5q-20 0 -30 -14t-10 -35v-465q0 -21 10.5 -34t30.5 -13q91 0 165.5 30t122.5 96.5t48 159.5z
" />
    <glyph glyph-name="e" unicode="e" 
d="M637 9q0 -5 -6 -9l-488 -1q-22 0 -60.5 -19.5t-43.5 -19.5q-8 0 -23.5 15.5t-15.5 23.5q0 3 6.5 20t13 43t6.5 49v418q0 29 -15 64.5t-15 36.5l4 6q2 2 8 2q8 0 33 -16t63 -32.5t78 -16.5h189l29 23q28 24 49 39t29 15q10 0 48.5 -42.5t38.5 -56.5q0 -5 -6 -9h-379
q-18 0 -27.5 -17t-9.5 -37v-171h228l29 23q28 24 49 39t29 15q10 0 48.5 -42.5t38.5 -56.5q0 -5 -6 -9h-416v-200q0 -22 9.5 -38t29.5 -16l261 -1l29 23q28 24 49 39t29 15q10 0 48.5 -42.5t38.5 -56.5z" />
    <glyph glyph-name="f" unicode="f" horiz-adv-x="603" 
d="M585 543q0 -3 -2 -9q-36 -36 -87 -61t-98 -25q-16 0 -23 4q29 13 57.5 51.5t28.5 68.5q0 8 -6.5 15t-13.5 7q-3 0 -4 -1h-257q-18 0 -27 -16t-9 -36v-263h150q95 77 107 77q10 0 48.5 -43t38.5 -56q0 -5 -6 -9h-338v-138q0 -12 8.5 -23t8.5 -14q0 -22 -43.5 -66.5
t-62.5 -44.5q-13 0 -33.5 16t-20.5 29q0 10 13 34.5t13 36.5v470q0 22 -7 43.5t-15 36t-8 17.5l4 6q5 3 17 3q29 0 86.5 -14.5t87.5 -14.5h247q26 0 59.5 14t37.5 14q14 0 31.5 -45t17.5 -64z" />
    <glyph glyph-name="g" unicode="g" horiz-adv-x="699" 
d="M657 301q0 -3 -8 -15q-18 -22 -18 -95q0 -19 1.5 -55.5t1.5 -55.5q0 -45 -13 -45q-8 0 -24 21t-19 21q-8 0 -8 -21q-2 -24 -28 -40.5t-65 -23.5t-68 -9.5t-54 -2.5q-91 0 -156 20q-86 26 -142.5 111t-56.5 177q0 122 159 226q8 4 8 8t-9 4q-20 0 -42 -17q-1 -1 -3 -1
q-17 0 -52 59t-35 79q0 8 6 8q19 0 97 -33.5t104 -33.5q33 0 113.5 19.5t132.5 19.5h19.5h22t20 -1t22 -3t18.5 -5t19 -9t15 -13q2 -2 3 -2q3 0 11.5 17.5t13.5 17.5q10 0 10 -14q0 -28 -16 -85t-16 -87q0 -4 1 -12t1 -12q0 -24 -14 -24q-10 0 -25 50q-27 79 -231 79
q-28 0 -42 -1q-92 -5 -184 -82.5t-92 -166.5q0 -66 41.5 -119t102 -79t124.5 -26q43 0 96 16t97 51t44 79q0 30 -44.5 44.5t-109 19t-75.5 7.5q-19 4 -19 12q0 24 89 39t139 15q137 0 137 -31z" />
    <glyph glyph-name="h" unicode="h" horiz-adv-x="653" 
d="M619 561q0 -4 -10 -18t-10 -35v-399q0 -11 8.5 -23t8.5 -14q0 -22 -43.5 -66.5t-62.5 -44.5q-14 0 -34 16t-20 30q0 9 13 34t13 36v209h-338v-177q0 -11 8.5 -23t8.5 -14q0 -22 -43.5 -66.5t-62.5 -44.5q-14 0 -34 16t-20 30q0 9 13 34t13 36v446q0 30 -13 65t-13 43
q0 20 15 20q19 0 83.5 -36.5t64.5 -51.5q0 -4 -10 -18t-10 -35v-193h87l16.5 16.5l24.5 24.5t24 20.5t19 9.5q4 0 12.5 -6t19 -15.5t19 -18.5t18 -19t11.5 -12h87v204q0 30 -13 65t-13 43q0 20 15 20q19 0 83.5 -36.5t64.5 -51.5z" />
    <glyph glyph-name="i" unicode="i" horiz-adv-x="236" 
d="M177 566q0 -4 -10 -18t-10 -35v-403q0 -12 8.5 -23t8.5 -14q0 -22 -43.5 -66.5t-62.5 -44.5q-14 0 -34 16.5t-20 30.5q0 8 13 32.5t13 36.5v448q0 29 -13 64.5t-13 43.5q0 20 15 20q19 0 83.5 -36.5t64.5 -51.5z" />
    <glyph glyph-name="j" unicode="j" horiz-adv-x="520" 
d="M490 565q0 -4 -10 -18t-10 -35v-266q0 -116 -69 -189.5t-184 -73.5q-35 0 -64 15.5t-44.5 35t-34.5 41t-34 29.5t-29.5 23.5t-14.5 29.5q0 9 12.5 14.5t33.5 6.5t39 1t38 -1t22 -1q9 0 25 3t23 3q14 0 14 -15q0 -9 -14.5 -18.5t-29.5 -21t-15 -25.5q0 -39 26 -64t65 -25
q58 0 88 46.5t30 107.5v353q0 32 -13 68.5t-13 43.5q0 20 15 20q19 0 83.5 -36.5t64.5 -51.5z" />
    <glyph glyph-name="k" unicode="k" horiz-adv-x="629" 
d="M619 150q0 -35 -50 -94q-5 -6 -13.5 -28t-17 -39.5t-15.5 -17.5q-9 0 -20.5 10t-14.5 12q-17 9 -34.5 20.5t-31.5 21.5t-32 25.5t-28.5 24.5t-29.5 28l-27 27t-28 30t-25.5 28t-27 30.5t-25.5 28.5q-9 -1 -27 -5t-28 -5v-138q0 -12 8.5 -23t8.5 -14q0 -22 -43.5 -66.5
t-62.5 -44.5q-14 0 -34 16t-20 30q0 9 13 34t13 36v442q0 32 -13 68.5t-13 43.5q0 20 15 20q19 0 83.5 -36.5t64.5 -51.5q0 -4 -10 -18t-10 -35v-81q36 -72 68 -104q72 55 145.5 145t73.5 154q0 30 19 30q10 0 25 -17q51 -62 85 -91q20 -15 21 -27l-3 -6q-5 -5 -29 -5
q-10 0 -15 -5q-83 -80 -141 -125t-145 -92q59 -62 132.5 -104t144.5 -42q19 0 50.5 9.5t36.5 9.5q7 0 7 -9zM176 299q-15 22 -32 65v-78q13 0 32 13z" />
    <glyph glyph-name="l" unicode="l" horiz-adv-x="584" 
d="M571 109q0 -21 -34 -74.5t-52 -53.5q-8 0 -26 9.5t-32 9.5h-228q-47 0 -69 -5t-71 -24q-25 -9 -36 -9q-22 0 -22 21q0 8 3 17q22 67 22 133v387q0 32 -13 68.5t-13 43.5q0 20 15 20q19 0 83.5 -36.5t64.5 -51.5q0 -4 -10 -18.5t-10 -34.5v-418q0 -21 12.5 -41.5
t31.5 -20.5h225q16 0 27 8t11 24q0 49 -21 94t-42 70t-21 27q0 4 8 4q44 0 120.5 -57.5t76.5 -91.5z" />
    <glyph glyph-name="m" unicode="m" horiz-adv-x="992" 
d="M985 -33q0 -5 -4 -5q-6 0 -15 9q-99 95 -172 233.5t-115 289.5q-8 -15 -31.5 -59t-36 -66t-33.5 -57t-41.5 -62.5t-42.5 -52.5q0 -1 3.5 -9.5t5 -13.5t5.5 -14t7.5 -14.5t7.5 -11.5t8.5 -9t9.5 -3q6 0 17 7t19 7t8 -10q0 -21 -45 -91.5t-60 -70.5q-23 0 -49.5 48
t-49 119.5t-36 121t-21.5 85.5q-32 -159 -204 -351l-6 -8q-6 -8 -10.5 -12.5t-8.5 -4.5q-5 0 -50 64.5t-45 75.5q0 14 14 14q7 0 22.5 -4t23.5 -4q53 0 108.5 51t91 112.5t52.5 114.5q-5 19 -15.5 75t-21 100t-20.5 64q0 26 31 26q4 0 46.5 -18t71.5 -18q4 0 11 1t10 1
q15 0 15 -21q0 -4 -3 -10q-28 -28 -28 -52q0 -58 23.5 -151t49.5 -151q105 135 105 385v6v7.5t1 6.5t3.5 5.5t6.5 1.5q21 0 41 -20q4 4 5 8t0 11.5t-1 9.5q0 10 10 10q20 0 63.5 -23.5t66.5 -41.5q4 -3 6.5 -7.5t4 -8t2 -9.5t0.5 -9v-10v-9q0 -138 47.5 -268t134.5 -290
q7 -14 7 -20z" />
    <glyph glyph-name="n" unicode="n" 
d="M618 563q0 -4 -10 -18.5t-10 -34.5v-401q0 -12 8.5 -23t8.5 -14q0 -22 -43.5 -66.5t-62.5 -44.5q-14 0 -31 14t-17 28q0 17 20 51q-89 18 -200 127.5t-138 199.5v-272q0 -12 8.5 -23t8.5 -14q0 -22 -43.5 -66.5t-62.5 -44.5q-13 0 -33.5 16t-20.5 29q0 10 13 34.5
t13 36.5v441q0 32 -13 68.5t-13 43.5q0 20 15 20q19 0 83.5 -36.5t64.5 -51.5q0 -4 -2 -8t-6 -8t-6 -7q-6 -11 -6 -81q2 4 14 35.5t24.5 51.5t25.5 20q6 0 10 -6q6 -22 18 -70.5t18 -71t19 -64.5t24 -65t30 -57.5t40 -57t50.5 -47.5t64.5 -45v438q0 32 -13 68.5t-13 43.5
q0 20 15 20q19 0 83.5 -36.5t64.5 -51.5z" />
    <glyph glyph-name="o" unicode="o" horiz-adv-x="653" 
d="M596 317q0 -82 -33.5 -158t-100.5 -127t-151 -51q-125 0 -204.5 103.5t-79.5 232.5q0 68 29 138q33 13 63 42t46.5 53t40.5 65q52 22 105 22q34 0 84 -18t76 -18q10 0 30 2.5t30 2.5q4 -2 4 -6q0 -6 -13 -22t-13 -26q0 -4 5 -12q82 -101 82 -223zM479 317q0 40 -9 86
t-27.5 93.5t-53 78.5t-78.5 31t-78 -31.5t-52.5 -78.5t-27.5 -93.5t-9 -85.5q0 -40 8.5 -88.5t26.5 -99t52.5 -84t79.5 -33.5t79.5 33.5t52.5 84.5t27 99t9 88z" />
    <glyph glyph-name="p" unicode="p" horiz-adv-x="653" 
d="M631 532l-3 -8q-5 -3 -24.5 -3.5t-27.5 -10.5q-18 -100 -85 -176t-156 -117t-191 -53v-55q0 -12 8.5 -23t8.5 -14q0 -21 -43.5 -66t-62.5 -45q-14 0 -34 16t-20 30q0 9 13 34t13 36v470q0 31 -15 64l-15 33l4 6q5 3 17 3q29 0 86.5 -14.5t87.5 -14.5h296q5 0 13.5 13
t17.5 13q2 0 8 -3q103 -93 104 -115zM467 561q0 7 -2 13t-6.5 9l-7.5 5t-11 3t-11 1h-12.5h-11.5h-230q-14 0 -22.5 -10.5t-8.5 -24.5v-361q61 5 138.5 70t131 150t53.5 145z" />
    <glyph glyph-name="q" unicode="q" horiz-adv-x="651" 
d="M595 319q0 -69 -25.5 -136t-72.5 -114q41 -51 83 -86q9 -2 9 -8q-7 -14 -20 -14q-27 0 -116 68q-61 -46 -142 -46q-84 0 -150.5 51t-99.5 127t-33 158q0 24 7 75t16 60q33 13 63 42t46.5 53t40.5 65q62 25 98 25q87 0 139 -37q22 -5 39 -5q10 0 30 2.5t30 2.5q4 -2 4 -6
q0 -6 -13 -22t-13 -26q0 -4 5 -12q75 -104 75 -217zM479 319q0 38 -9.5 85t-28 94t-53 78.5t-77.5 31.5q-44 0 -78 -31.5t-52 -78.5t-27 -93.5t-9 -85.5q0 -41 8.5 -88.5t26 -98.5t52 -84.5t79.5 -33.5q19 0 39 10t29 18.5t29 28.5q-5 5 -13 5q-5 0 -13 -2t-13 -2
q-8 0 -8 14q0 18 29.5 76.5t42.5 58.5l1 -1q2 0 4.5 -15.5t5.5 -33t6 -22.5q29 84 29 170z" />
    <glyph glyph-name="r" unicode="r" horiz-adv-x="698" 
d="M699 -36q-112 15 -243 79.5t-183 146.5q-39 -16 -130 -26v-55q0 -13 8.5 -23t8.5 -14q0 -21 -43.5 -66t-62.5 -45q-15 0 -34.5 16.5t-19.5 31.5q0 7 13 32t13 36v470q0 31 -15 63t-15 34l4 6q5 3 17 3q29 0 86.5 -14.5t87.5 -14.5h296q5 0 13.5 13t17.5 13q2 0 8 -3
q102 -87 104 -115l-3 -8q-5 -3 -24.5 -3.5t-27.5 -10.5q-14 -78 -73 -156t-130 -115q40 -71 138 -149t189 -126zM465 568q0 24 -55 24h-236q-14 0 -22.5 -10t-8.5 -25v-361q43 0 100 43q-8 16 -31 23.5t-23 14.5q0 13 15 27.5t37.5 29t28.5 20.5q4 4 16 18t22.5 25t16.5 12
q8 2 12 2q9 0 9 -9q0 -7 -2.5 -21.5t-2.5 -22.5q0 -17 4 -29q39 41 79.5 116.5t40.5 122.5z" />
    <glyph glyph-name="s" unicode="s" horiz-adv-x="687" 
d="M636 176q0 -52 -40 -91.5t-100.5 -60t-117 -30.5t-102.5 -10q-64 0 -206 32h-6q-9 0 -24.5 -26.5t-20.5 -26.5q-13 0 -13 44q0 20 6 60.5t6 61.5q0 17 -9.5 46t-9.5 44q0 19 11 19q16 0 49 -40q91 -104 302 -104q21 0 55.5 3.5t78 11t74 24t30.5 38.5q0 29 -33 46.5
t-86 25.5t-117 14t-128 16.5t-117 28.5t-86 55t-33 90q0 37 17 72t45 57q3 3 14 8.5t14 8.5q1 1 1 5q0 2 -16 17.5t-16 24.5q0 10 18 10q9 0 27.5 -13t37.5 -13q26 0 53 3t62.5 8.5t52.5 7.5q58 7 151 7h32q25 0 35.5 -0.5t26 -6.5t27.5 -19q3 -3 4 -3q5 0 19 15.5t20 15.5
q10 0 10 -14q0 -27 -16 -84t-16 -88q0 -4 1 -12t1 -12q0 -24 -15 -24q-4 0 -10 10t-12.5 24.5t-7.5 15.5q-18 34 -83.5 53.5t-117.5 23.5t-104 4q-30 0 -58.5 -2.5t-68 -10.5t-63.5 -28.5t-24 -50.5q0 -27 33 -42.5t85.5 -21.5t116 -10.5t127 -15t116 -30t85.5 -60.5
t33 -101z" />
    <glyph glyph-name="t" unicode="t" horiz-adv-x="722" 
d="M704 583q0 -59 -49.5 -115t-108.5 -56q-5 0 -7 5q29 20 48 57.5t19 73.5q0 15 -6 30t-19 15h-131q-33 0 -33 -37v-447q0 -12 8.5 -23t8.5 -14q0 -22 -43.5 -66.5t-62.5 -44.5q-13 0 -33.5 16t-20.5 29q0 10 13 34.5t13 36.5v482q0 34 -15 34h-111q-6 0 -15 -18
t-18.5 -40.5t-11.5 -26.5q-17 -28 -59.5 -73.5t-62.5 -45.5q-2 0 -6 2q-3 3 -3 11q0 14 14.5 62t14.5 81q0 27 -8.5 58t-8.5 32q0 16 17 16q9 0 40.5 -13.5t50.5 -13.5h156q-3 6 -3 13q0 14 21 14q20 0 58.5 -13.5t48.5 -13.5h150q22 31 72 31q83 0 83 -72z" />
    <glyph glyph-name="u" unicode="u" horiz-adv-x="653" 
d="M639 562q0 -4 -4.5 -10t-8.5 -6q-6 0 -16.5 4t-16.5 4q-7 0 -11 -8q5 -18 8 -39t4.5 -35.5t2.5 -41t1 -35.5v-41.5v-36.5h-1q0 -82 -33.5 -158t-100.5 -127t-151 -51q-22 0 -65.5 6t-64.5 6q-8 0 -22 -3.5t-22 -3.5q-30 0 -30 17q0 11 18 22t18 18q0 4 -2 7.5t-6.5 8
l-5.5 5.5q-47 50 -75.5 129t-28.5 149v175q0 32 -13 68.5t-13 43.5q0 20 15 20q19 0 83.5 -36.5t64.5 -51.5q0 -4 -10.5 -18t-9.5 -35l3 -191q0 -40 9 -88t27 -99t52 -84.5t79 -33.5t79.5 33.5t52.5 84.5t27 99t9 88v126q0 37 -16 96.5t-36 84.5q-7 9 -7 15q0 17 30 17
q24 0 105.5 -38.5t81.5 -55.5z" />
    <glyph glyph-name="v" unicode="v" horiz-adv-x="631" 
d="M619 510l-3 -6q-5 -5 -29 -5q-10 0 -15 -5q-73 -70 -125.5 -178.5t-74.5 -217.5q3 -6 17 -19t14 -27q0 -4 -14 -16.5t-30 -30t-21 -31.5q-10 -10 -19 -10t-19 10q-39 39 -96 142t-86 175q-21 52 -53.5 151t-49.5 143l-15 39q0 26 31 26q3 0 46 -18t72 -18q3 0 10 1t11 1
q15 0 15 -21q0 -4 -3 -10q-28 -28 -28 -52q0 -5 2 -13q113 -319 191 -401q8 103 41 228t77 226q4 8 5 14t0 15t-1 13q0 30 19 30q10 0 25 -17q51 -62 85 -91q19 -17 21 -27z" />
    <glyph glyph-name="w" unicode="w" horiz-adv-x="873" 
d="M864 515l-3 -6q-5 -5 -29 -5q-10 0 -15 -5q-27 3 -75 -75t-73 -132q-29 -70 -46 -131q-24 -94 -23 -164v-10q0 -30 -15 -30q-11 0 -11 24v109q-11 -22 -34 -42t-44 -20q-5 0 -11 3v17q1 70 -25 167.5t-70 129.5q-91 -105 -108 -199q2 -5 16 -25.5t14 -27.5q0 -4 -5 -9
q-12 -16 -21.5 -33.5t-20 -41t-16.5 -35.5q-5 -10 -13 -10q-7 0 -13 10q-106 177 -165 416q-5 21 -14 72.5t-17 78.5q-11 40 -29 83q0 26 31 26q4 0 46.5 -18t71.5 -18q3 0 10 1t11 1q15 0 15 -21q0 -4 -3 -10q-28 -28 -28 -52q0 -66 33.5 -179.5t69.5 -182.5q19 106 72 245
q-2 2 -10 9t-14 13t-11.5 13t-5.5 10q0 7 9 7q17 0 42 -18q1 3 7.5 15.5t13 23.5t14 23t14 19.5t10.5 7.5q13 0 27.5 -21.5t30.5 -51.5t28 -41q17 -17 18 -25q-2 -13 -42 -13q-16 0 -20 -5q20 -17 41.5 -41.5t31 -37.5t35 -51.5t28.5 -43.5q30 181 140 412q0 30 19 30
q12 0 25 -17q51 -62 85 -91q20 -15 21 -27z" />
    <glyph glyph-name="x" unicode="x" horiz-adv-x="619" 
d="M605 519l-3 -6q-4 -5 -29 -5q-10 0 -31.5 -19.5t-48.5 -51t-49.5 -59t-46 -58.5t-25.5 -34q21 -31 69.5 -93t58.5 -62q9 0 25.5 20.5t24.5 20.5q14 0 14 -12q0 -6 -9 -29t-10 -28q-11 -42 -11 -106v-10q0 -12 -10.5 -20.5t-22.5 -8.5t-42.5 31.5t-67.5 78.5t-60 77.5
t-39 52.5q-238 -238 -284 -238q-15 0 -15 12q0 6 4 12t8.5 9.5t12 9t9.5 7.5q105 82 213 256q-2 4 -32.5 49t-59 88.5t-61 94t-52.5 85t-20 41.5q0 16 11 25t28 9t51 -6t52 -6q11 0 28.5 6.5t25.5 6.5t8 -9q0 -14 -22 -32t-22 -31q0 -7 11.5 -28t31 -51.5t36 -55.5t36 -53.5
t22.5 -32.5q142 235 143 258q3 30 19 30q12 0 25 -17q51 -62 85 -91q20 -15 21 -27z" />
    <glyph glyph-name="y" unicode="y" horiz-adv-x="635" 
d="M629 519l-3 -6q-5 -5 -29 -5q-14 0 -21 -14q-6 -12 -17 -37.5t-17 -37.5q-87 -180 -207 -282q-173 -148 -318 -182l-7 -1q-13 0 -13 9q0 12 32 26q143 71 249 205q-69 42 -132.5 151.5t-101.5 214.5q-3 8 -22 40t-19 37q0 14 9 14q24 0 73 -5t73 -5q6 0 10 -5t5 -14
t1 -16.5t-1 -17t-1 -12.5q0 -95 34 -199t97 -154q63 80 114.5 194t61.5 207q3 30 19 30q10 0 25 -17q57 -67 85 -91q19 -17 21 -27z" />
    <glyph glyph-name="z" unicode="z" horiz-adv-x="651" 
d="M634 9q0 -5 -6 -9h-417q-9 0 -27 -21t-30 -21q-14 0 -73 55.5t-59 66.5q0 10 8.5 14t19.5 4t25 4t22 14l350 415q10 11 10 30q0 13 -6.5 22.5t-19.5 9.5h-258q-6 0 -15 -18t-18.5 -40.5t-11.5 -26.5q-17 -28 -59.5 -73.5t-62.5 -45.5q-2 0 -6 2q-3 3 -3 11q0 14 14.5 62
t14.5 81q0 27 -8.5 58t-8.5 32q0 16 17 16q8 0 40 -13.5t51 -13.5h352q5 0 13.5 13t17.5 13q2 0 8 -3q24 -22 70.5 -72t46.5 -64l-3 -8q-3 -2 -26 -2t-31 -10q-5 -6 -50.5 -59t-93.5 -110t-99.5 -119t-84.5 -105t-33 -49q0 -7 5.5 -12.5t13.5 -5.5h217l28 23q29 24 50 39
t29 15q10 0 48.5 -42.5t38.5 -56.5z" />
    <glyph glyph-name="braceleft" unicode="{" horiz-adv-x="327" 
d="M321 -32q-20 -2 -30 -2q-53 0 -107 23.5t-75 65.5q-10 20 -14.5 46.5t-5 43.5t0.5 51.5t1 45.5q0 40 -17 61t-56 34q64 29 79 55t21 99q1 4 1 6t0.5 5.5t0.5 6.5q9 92 42.5 132t121.5 46l24 -31q-57 -8 -84.5 -37.5t-32.5 -70.5t-6 -84t-16 -87.5t-52 -72.5
q19 -24 24.5 -54t5.5 -53.5t5 -46.5t29 -41t71 -29z" />
    <glyph glyph-name="bar" unicode="|" horiz-adv-x="500" 
d="M282 -167h-65v834h65v-834z" />
    <glyph glyph-name="braceright" unicode="}" horiz-adv-x="327" 
d="M308 317q-64 -29 -79 -55t-21 -99q-1 -12 -2 -18q-8 -92 -42 -131.5t-122 -46.5l-24 31q57 8 85 37.5t32.5 70.5t5.5 84t16.5 88t52.5 72q-19 24 -25 54t-5.5 53.5t-4.5 46.5t-29 41t-72 29l-69 112q10 1 30 1q53 0 107.5 -23.5t75.5 -65.5q10 -21 14.5 -47t5 -43.5
t-1 -49.5t-1.5 -46q0 -40 16.5 -61t56.5 -34z" />
    <glyph glyph-name="asciitilde" unicode="~" horiz-adv-x="667" 
d="M540 723q-22 -40 -58.5 -69.5t-76.5 -29.5q-30 0 -87 21t-88 21q-16 0 -29.5 -5.5t-19.5 -10t-19.5 -19.5t-18.5 -20l-16 10q58 101 136 101q29 0 84 -20t84 -20q52 0 93 52z" />
    <glyph glyph-name="currency" unicode="&#xa4;" horiz-adv-x="480" 
d="M463 337q0 -70 -46 -131l41 -41l-50 -49l-42 42q-30 -21 -72 -41l14 -23q-30 -6 -45 -6q-81 0 -155 64l-36 -36l-49 49l38 39q-44 66 -44 131q0 66 50 122l-44 44l49 50l47 -47q5 4 41 27l-18 23q50 13 70 13q77 0 157 -55l39 39l50 -50l-39 -38q44 -61 44 -126zM380 305
q0 78 -50.5 120.5t-130.5 48.5l-25 39q-39 -41 -58 -74t-19 -77q0 -75 42 -115t120 -63l24 -48q49 40 73 78t24 91z" />
    <glyph glyph-name="brokenbar" unicode="&#xa6;" horiz-adv-x="500" 
d="M282 327h-65v340h65v-340zM282 -167h-65v320h65v-320z" />
    <glyph glyph-name="section" unicode="&#xa7;" horiz-adv-x="520" 
d="M441 686q0 -20 -15.5 -35t-35.5 -15q-23 0 -41 13t-27.5 28.5t-22.5 28.5t-28 13q-30 0 -47 -29t-17 -61q0 -57 24 -112.5t58.5 -102t68.5 -94.5t58 -109t24 -127q0 -115 -66.5 -193.5t-179.5 -78.5q-37 0 -74.5 17.5t-37.5 50.5q0 19 16 32t36 13t36.5 -11t26 -24.5
t23 -24.5t29.5 -11q33 0 48 33t15 71q0 47 -24 93t-59 88t-69.5 88.5t-58.5 112t-24 141.5q0 116 64 199.5t176 83.5q27 0 53.5 -6.5t48.5 -25.5t22 -46zM395 66q0 67 -27 130t-64 113t-73 100t-56.5 110t-11.5 123q-40 -81 -40 -151t24 -133t58.5 -109.5t68.5 -89t58 -89
t24 -91.5q0 -26 -9 -62q48 68 48 149z" />
    <glyph glyph-name="copyright" unicode="&#xa9;" horiz-adv-x="727" 
d="M710 334q0 -146 -102.5 -246.5t-248.5 -100.5q-141 0 -241.5 103t-100.5 244q0 143 102 244.5t245 101.5t244.5 -101.5t101.5 -244.5zM666 334q0 124 -89 213t-213 89q-125 0 -214 -88.5t-89 -213.5q0 -124 88 -213.5t211 -89.5q127 0 216.5 88t89.5 215zM572 161
q0 -23 -44 -39t-86 -21.5t-67 -5.5q-101 0 -170.5 53t-69.5 150q0 82 104 150l2 1q2 1 3 2.5t1 2.5l-7 2q-6 0 -13 -3t-11 -7l-5 -3q-12 0 -35 40t-23 54q0 3 5 3q12 0 63 -22t69 -22q26 0 80 12.5t83 12.5h12.5h15t13.5 -0.5t14.5 -2t12 -3.5t12.5 -5.5t10 -8.5q1 -1 2 -1
t7 11t9 11q6 0 6 -8q0 -17 -10 -59.5t-10 -70.5q0 -15 -9 -15q-5 2 -16 32q-19 53 -153 53q-45 0 -92.5 -19.5t-82.5 -59t-35 -87.5q0 -65 57.5 -103.5t124.5 -38.5q49 0 95 19.5t72 55.5q5 7 9.5 28.5t8 38.5t8.5 17q4 -2 4.5 -12.5t-0.5 -26t-1 -16.5q0 -30 18.5 -46
t18.5 -43z" />
    <glyph glyph-name="guillemotleft" unicode="&#xab;" horiz-adv-x="655" 
d="M619 503q0 -30 -72 -88t-107 -67q25 6 80.5 -73t55.5 -106q0 -5 -5 -5q-4 0 -21.5 17.5t-40 39t-60 39t-76.5 17.5q-24 0 -24 15q0 10 9 30q-14 -7 -25 -7q-9 0 -9 6q3 6 14 12q64 35 98.5 74.5t42.5 101.5q3 17 26 17q11 0 34 -9.5t38 -9.5q5 0 16 2t16 2q10 0 10 -8z
M375 434q0 -8 -8.5 -15t-16.5 -7q-84 0 -176 -83q125 -38 193 -156q4 -8 4 -10q0 -12 -10 -12q-4 0 -16 12q-57 53 -95.5 68t-117.5 17q-9 0 -13 4t-4 10.5v14.5q-5 1 -20.5 -15.5t-20.5 -16.5q-3 0 -3 5q0 38 107 153t134 115q11 0 16 -15.5t13 -34.5t25 -25q9 -4 9 -9z
" />
    <glyph glyph-name="logicalnot" unicode="&#xac;" horiz-adv-x="500" 
d="M466 0h-111v219h-321v48h432v-267z" />
    <glyph glyph-name="registered" unicode="&#xae;" horiz-adv-x="727" 
d="M710 334q0 -146 -102.5 -246.5t-248.5 -100.5q-141 0 -241.5 103t-100.5 244q0 143 102 244.5t245 101.5t244.5 -101.5t101.5 -244.5zM666 334q0 124 -89 213t-213 89q-125 0 -214 -88.5t-89 -213.5q0 -124 88 -213.5t211 -89.5q127 0 216.5 88t89.5 215zM565 116
q-65 -1 -136 42t-106 100q-25 -10 -78 -16v-33q0 -5 2.5 -9.5t5 -7.5t2.5 -4q0 -14 -26 -41t-38 -27q-7 0 -19.5 9.5t-12.5 15.5q0 9 8 23.5t8 21.5v282q0 18 -9 38t-9 21q0 5 12 5q17 0 52 -9t53 -9h177q4 0 9 8t11 8q4 0 35 -31t31 -40q0 -4 -4 -5.5t-9 -1.5t-11 -1.5
t-9 -4.5q-8 -47 -43.5 -94t-78.5 -69q28 -51 78 -96.5t105 -74.5zM438 484q0 15 -32 15h-143q-18 0 -18 -21v-217q25 0 60 26q-4 10 -18.5 14t-14.5 9q0 7 42 43.5t47 36.5q4 0 4.5 -6t-1 -15t-1.5 -10q0 -9 3 -18q23 24 47.5 69.5t24.5 73.5z" />
    <glyph glyph-name="degree" unicode="&#xb0;" horiz-adv-x="387" 
d="M331 539q0 -56 -41 -96t-97 -40q-57 0 -97.5 40t-40.5 97q0 55 41.5 94.5t96.5 39.5q56 0 97 -39.5t41 -95.5zM274 538q0 33 -24 56.5t-57 23.5q-32 0 -56.5 -23.5t-24.5 -55.5q0 -33 24 -56.5t57 -23.5t57 23t24 56z" />
    <glyph glyph-name="plusminus" unicode="&#xb1;" horiz-adv-x="480" 
d="M429 359h-156v-134h-65v134h-157v60h157v138h65v-138h156v-60zM429 101h-378v60h378v-60z" />
    <glyph glyph-name="mu" unicode="&#xb5;" horiz-adv-x="480" 
d="M481 35q-14 -7 -53.5 -26.5t-44.5 -19.5q-16 0 -27.5 14t-15.5 27t-8 34q-1 3 -1 5q-31 -31 -45 -43.5t-42.5 -26.5t-59.5 -14q-44 0 -69.5 21.5t-40.5 65.5v-25q0 -32 12.5 -94.5t12.5 -93.5q0 -21 -12 -35.5t-32 -14.5t-32.5 14.5t-12.5 34.5q0 27 7 62q14 83 21 188
t7.5 159t0.5 190h87v-286q0 -27 2 -46t9.5 -42.5t25 -35.5t44.5 -12q60 0 112 73v349h86v-336v-10v-11t0.5 -10.5t1 -10.5t2 -9t3.5 -9t5 -7t7 -6t9.5 -3.5t11.5 -1.5q13 0 29 9v-17z" />
    <glyph glyph-name="mu" unicode="&#x3bc;" horiz-adv-x="480" 
d="M481 35q-14 -7 -53.5 -26.5t-44.5 -19.5q-16 0 -27.5 14t-15.5 27t-8 34q-1 3 -1 5q-31 -31 -45 -43.5t-42.5 -26.5t-59.5 -14q-44 0 -69.5 21.5t-40.5 65.5v-25q0 -32 12.5 -94.5t12.5 -93.5q0 -21 -12 -35.5t-32 -14.5t-32.5 14.5t-12.5 34.5q0 27 7 62q14 83 21 188
t7.5 159t0.5 190h87v-286q0 -27 2 -46t9.5 -42.5t25 -35.5t44.5 -12q60 0 112 73v349h86v-336v-10v-11t0.5 -10.5t1 -10.5t2 -9t3.5 -9t5 -7t7 -6t9.5 -3.5t11.5 -1.5q13 0 29 9v-17z" />
    <glyph glyph-name="paragraph" unicode="&#xb6;" horiz-adv-x="480" 
d="M484 667l-17 -28q-30 0 -90 -2l84 -139q-66 -189 -66 -334q0 -144 47 -264l-15 -32q-52 94 -76 191.5t-24 188.5t3 205q-28 -116 -28 -234q0 -96 11 -168.5t42 -150.5l-14 -32q-50 82 -73 164.5t-29 187.5q-18 -5 -34 -5q-81 0 -136.5 71.5t-55.5 155.5q0 226 413 226
q39 0 58 -1zM362 637q-46 -4 -67 -8l49 -81q7 42 18 89zM272 625q-173 -43 -173 -165q0 -45 27.5 -77t71.5 -40l39 -67q0 187 35 349z" />
    <glyph glyph-name="periodcentered" unicode="&#xb7;" horiz-adv-x="319" 
d="M250 596l-18 -33q2 -44 2 -67q0 -86 -7.5 -132t-38.5 -113l-69 90q35 54 48 86.5t22 93.5q-63 -38 -132 -38q-19 0 -29 1l2 22q71 1 100.5 28.5t52.5 100.5l17 -10v25l21 9l7 -50z" />
    <glyph glyph-name="periodcentered" unicode="&#x2219;" horiz-adv-x="319" 
d="M250 596l-18 -33q2 -44 2 -67q0 -86 -7.5 -132t-38.5 -113l-69 90q35 54 48 86.5t22 93.5q-63 -38 -132 -38q-19 0 -29 1l2 22q71 1 100.5 28.5t52.5 100.5l17 -10v25l21 9l7 -50z" />
    <glyph glyph-name="guillemotright" unicode="&#xbb;" horiz-adv-x="655" 
d="M604 250q0 -5 -3 -5q-5 0 -20.5 16.5t-20.5 15.5v-8q2 -21 -17 -21q-76 -2 -119 -18t-94 -67q-12 -12 -16 -12q-10 0 -10 12q17 51 78.5 100t118.5 66q-92 83 -176 83q-8 0 -16.5 7t-8.5 15q0 6 9 9q13 6 21.5 19t11.5 25t8 21.5t13 9.5q27 0 134 -115t107 -153zM351 321
q0 -6 -9 -6q-11 0 -25 7q9 -20 9 -30q0 -15 -27 -15q-48 0 -93 -28.5t-72 -56.5t-30 -28q-5 0 -5 5q0 27 55.5 106t80.5 73q-35 9 -107 67t-72 88q0 8 10 8q6 0 16.5 -2t15.5 -2q14 0 37 9.5t35 9.5q23 0 26 -17q7 -61 43 -102.5t98 -73.5q14 -8 14 -12z" />
    <glyph glyph-name="tilde" unicode="&#x2dc;" horiz-adv-x="500" 
d="M416 770q-54 -47 -108 -47q-25 0 -77 32t-88 32q-26 0 -56 -30l-2 33q42 38 77 38q26 0 64 -17q9 -9 34 -21t36 -12q44 0 83 65z" />
    <glyph glyph-name="afii10023" unicode="&#x401;" horiz-adv-x="651" 
d="M404 724q0 -22 -42 -59t-64 -37l-9 5v4q0 2 15.5 34.5t11.5 60.5h78q10 0 10 -8zM257 724q0 -22 -42 -59t-64 -37l-9 5v4q0 2 15.5 34.5t11.5 60.5h78q10 0 10 -8zM636 9q0 -5 -6 -9l-488 -1q-22 0 -60.5 -19.5t-43.5 -19.5q-8 0 -23.5 15.5t-15.5 23.5q0 3 6.5 20t13 43
t6.5 49v418q0 29 -15 64.5t-15 36.5l4 6q2 2 8 2q8 0 33 -16t63 -32.5t78 -16.5h189l28 23q29 24 50 39t29 15q10 0 48.5 -42.5t38.5 -56.5q0 -5 -6 -9h-379q-18 0 -27.5 -17t-9.5 -37v-171h228l28 23q29 24 50 39t29 15q10 0 48.5 -42.5t38.5 -56.5q0 -5 -6 -9h-416v-200
q0 -22 9.5 -38t29.5 -16l261 -1l28 23q29 24 50 39t29 15q10 0 48.5 -42.5t38.5 -56.5z" />
    <glyph glyph-name="afii10055" unicode="&#x406;" horiz-adv-x="311" 
d="M296 402q0 -2 -3 -2h-292q11 43 37.5 70.5t56.5 39.5t58.5 22.5t47.5 29.5t19 50q0 39 -28 61t-68 22q-56 0 -71.5 -25t-17.5 -88q-28 47 -28 101q0 44 18 44q6 0 26.5 -9t33.5 -9q14 0 42.5 4t43.5 4q110 0 110 -73q0 -33 -18.5 -58.5t-46 -42.5t-55 -33t-49 -39.5
t-24.5 -54.5h111l15 12q14 11 24.5 18.5t13.5 7.5t7 -2q1 -2 12.5 -14t18 -21t6.5 -15z" />
    <glyph glyph-name="afii10056" unicode="&#x407;" horiz-adv-x="500" 
d="M412 809q-83 -92 -186 -92q-60 0 -138 37l50 69q64 -36 126 -36q77 0 133 37z" />
    <glyph glyph-name="afii10057" unicode="&#x408;" horiz-adv-x="480" 
d="M475 29l-21 -24q-96 62 -174 62q-48 0 -86 -19.5t-87 -59.5l-26 32q-18 -16 -45 -29l-13 16q31 33 36 40l-40 50q42 23 78 35q11 48 11 106q0 34 -3 69q-51 -10 -74 -43l-26 19q22 36 42 57t53 39q-1 113 70 204q35 44 63 61.5t83 31.5l39 -124q-63 -22 -103.5 -55
t-63.5 -90q22 2 32 2q56 0 127 -27l-69 -118q-65 31 -97 39q0 -101 -22 -161q8 1 24 1q84 0 151 -28t141 -86z" />
    <glyph glyph-name="afii10017" unicode="&#x410;" horiz-adv-x="683" 
d="M682 -32q0 -6 -3 -6q-26 13 -92 114t-81 141h-252q-7 -12 -41.5 -82t-65.5 -114t-63 -59q-20 20 -53 63.5t-34 58.5q2 6 9 8q49 13 86 43.5t78 81.5q-2 0 -10.5 -0.5t-13.5 -0.5t-12 1.5t-10.5 5t-3.5 9.5q0 7 6 11t16 5.5t19 1.5t19.5 -1t13.5 -1q34 41 90 154t79 178
q-19 66 -19 71q0 1 5 1q14 0 70.5 -11t67.5 -16v-4q0 -3 -6.5 -20t-6.5 -28q0 -19 38.5 -148.5t54.5 -176.5q3 0 14.5 1t21 1t20 -1t17 -5.5t6.5 -11.5t-5 -11t-14.5 -5t-17.5 -1t-18 1t-13 1q39 -114 83 -194q21 -42 21 -55zM488 248q-96 193 -112 285q-7 -27 -16.5 -55.5
t-23.5 -62.5t-21.5 -53t-26.5 -61t-24 -53h43q2 2 19 19.5t30.5 29t20.5 11.5q5 0 15.5 -8t19 -17t20 -21t13.5 -14h43z" />
    <glyph glyph-name="afii10018" unicode="&#x411;" 
d="M636 239q0 -3 -1 -5.5t-3.5 -4t-4.5 -2.5t-5.5 -1h-6h-6.5h-5q-6 0 -11.5 -3.5t-8 -6.5t-7.5 -10.5t-6 -9.5q-68 -102 -175 -146t-246 -50l-7 -1q-8 -13 -41.5 -25.5t-52.5 -12.5q-23 0 -23 20v656q0 13 15 13q8 0 42.5 -13t59.5 -13h291q26 0 59.5 14t36.5 14
q15 0 32.5 -45t17.5 -64q0 -3 -2 -9q-36 -36 -87 -61t-98 -25q-16 0 -23 4q29 13 57.5 51.5t28.5 69.5q0 7 -6 14t-13 7q-3 0 -5 -1h-247q-19 0 -30.5 -16.5t-11.5 -36.5v-223h52t69.5 0.5t68.5 4t73 9.5t58.5 17.5t47.5 27.5q3 3 7 3q18 0 67.5 -59.5t49.5 -80.5zM496 278
q0 3 -2 7h-351v-255q78 0 158 45.5t138 112.5q57 64 57 90z" />
    <glyph glyph-name="afii10019" unicode="&#x412;" 
d="M637 238q0 -4 -2 -6.5t-4 -4t-6 -2t-6.5 -0.5h-7h-5.5q-4 0 -7 -1t-6 -3t-5 -3.5t-5 -5.5t-4 -5.5t-3.5 -6t-3.5 -5.5q-45 -79 -160 -136t-211 -59l-58 -1q-8 -13 -41.5 -25.5t-52.5 -12.5q-23 0 -23 20v656q0 13 15 13q8 0 42.5 -13t59.5 -13h325q5 0 13.5 13t17.5 13
q2 0 8 -3q16 -14 36.5 -32.5t44 -45t23.5 -37.5l-3 -8q-5 -3 -24.5 -3.5t-27.5 -10.5q-45 -53 -108.5 -107t-109.5 -65l-86 -21q200 0 261 58q3 3 7 3q18 0 67.5 -59.5t49.5 -80.5zM471 583q0 10 -10 10h-275q-21 0 -32 -15t-11 -36v-225q105 19 192.5 88t132.5 167
q3 4 3 11zM496 279q0 3 -2 7h-351v-255q78 0 158 45.5t138 112.5q57 64 57 90z" />
    <glyph glyph-name="afii10020" unicode="&#x413;" horiz-adv-x="581" 
d="M564 543q0 -3 -2 -9q-36 -36 -87 -61t-98 -25q-16 0 -23 4q29 13 57.5 51.5t28.5 69.5q0 7 -6 14t-13 7q-3 0 -5 -1h-273v-484q0 -12 8.5 -23t8.5 -14q0 -22 -43.5 -66.5t-62.5 -44.5q-14 0 -34 16t-20 30q0 10 13 34.5t13 35.5v470q0 22 -7 43.5t-15 35.5t-8 18l4 6
q5 3 17 3q29 0 86.5 -14.5t87.5 -14.5h227q26 0 59.5 14t36.5 14q15 0 32.5 -45t17.5 -64z" />
    <glyph glyph-name="afii10021" unicode="&#x414;" horiz-adv-x="850" 
d="M852 -10q0 -59 -49.5 -115t-108.5 -56q-5 0 -7 5q29 20 48 57.5t19 73.5q0 15 -6 30t-19 15h-587q-14 0 -24 -10t-10 -24q0 -23 14 -70t14 -60q0 -16 -9 -16q-7 0 -22 26t-30 57.5t-21 38.5q-4 5 -24.5 22t-37.5 32t-17 21q0 8 12 12t31 5t36 0.5t35.5 -1.5t21.5 -1
q67 47 126.5 215t59.5 266q0 14 -0.5 41.5t-0.5 41.5v6v7.5t1 6.5t3.5 5.5t6.5 1.5q21 0 41 -20l29 -13l-15 39q0 26 31 26q4 0 46.5 -18t71.5 -18q3 0 10 1t11 1q15 0 15 -21q0 -4 -3 -10q-28 -28 -28 -52q0 -35 78.5 -252t102.5 -255q22 31 72 31q83 0 83 -72zM559 54
q0 12 -11 36q-88 205 -139 391q-42 -108 -117 -247t-135 -202h373q29 0 29 22z" />
    <glyph glyph-name="afii10022" unicode="&#x415;" 
d="M637 9q0 -5 -6 -9l-488 -1q-22 0 -60.5 -19.5t-43.5 -19.5q-8 0 -23.5 15.5t-15.5 23.5q0 3 6.5 20t13 43t6.5 49v418q0 29 -15 64.5t-15 36.5l4 6q2 2 8 2q8 0 33 -16t63 -32.5t78 -16.5h189l29 23q28 24 49 39t29 15q10 0 48.5 -42.5t38.5 -56.5q0 -5 -6 -9h-379
q-18 0 -27.5 -17t-9.5 -37v-171h228l29 23q28 24 49 39t29 15q10 0 48.5 -42.5t38.5 -56.5q0 -5 -6 -9h-416v-200q0 -22 9.5 -38t29.5 -16l261 -1l29 23q28 24 49 39t29 15q10 0 48.5 -42.5t38.5 -56.5z" />
    <glyph glyph-name="afii10024" unicode="&#x416;" horiz-adv-x="907" 
d="M905 140q0 -34 -41 -94q-4 -6 -11 -28t-14 -39.5t-12 -17.5q-9 0 -17 10t-12 12q-28 19 -54 43.5t-51.5 56.5t-42 54.5t-44 63t-39.5 56.5q-8 -1 -25.5 -4.5t-27.5 -4.5v-138q0 -12 8.5 -23t8.5 -14q0 -22 -43.5 -66.5t-62.5 -44.5q-14 0 -34 16t-20 30q0 9 13 34t13 36
v169q-10 0 -28 4.5t-25 5.5q-8 -11 -33.5 -47t-37 -52t-35.5 -47t-41 -49.5t-41 -40.5t-47 -38q-4 -2 -12 -12t-16 -10q-5 0 -12.5 18t-14.5 40t-11 27q-40 59 -40 94q0 10 6 10l24 -10q24 -9 41 -9q60 0 121.5 46.5t109.5 108.5q-145 96 -201 156q-10 10 -26 31t-25 30
q-4 4 -27 4q-20 0 -20 12q0 9 21 27q34 29 85 91q13 17 25 17q19 0 19 -39q0 -62 57.5 -146t120.5 -144q12 14 37.5 55t25.5 51v90q0 32 -13 68.5t-13 43.5q0 20 15 20q19 0 83.5 -36.5t64.5 -51.5q0 -4 -10 -18.5t-10 -34.5v-83q7 -16 16.5 -33t23.5 -38.5t20 -30.5
q59 51 108 138.5t51 158.5q0 30 19 30q12 0 25 -17q51 -62 85 -91q20 -15 21 -27l-3 -6q-5 -5 -30 -5q-9 0 -14 -5q-10 -11 -32.5 -36.5t-31.5 -35t-27 -29t-30 -30t-30.5 -26t-37 -29.5t-41.5 -29q48 -62 108.5 -109t120.5 -47q17 0 41 9l23 9q6 0 6 -10zM539 299
q-3 5 -25 66l-1 -79q9 0 26 13zM396 286v78q-12 -39 -26 -65q17 -13 26 -13z" />
    <glyph glyph-name="afii10025" unicode="&#x417;" horiz-adv-x="684" 
d="M667 644q0 -20 -35 -79t-52 -59q-2 0 -3 1q-22 17 -42 17q-9 0 -9 -3q4 -9 13.5 -18t15 -21.5t5.5 -36.5q0 -80 -104 -128q97 0 151 -36.5t54 -128.5q0 -51 -40.5 -87.5t-103 -53t-116 -23.5t-102.5 -7q-184 0 -289 169q-12 20 -12 44q0 25 16 28q21 4 66.5 10t69.5 11
q2 0 9 2t10 2q9 0 15.5 -7t6.5 -16q0 -8 -15.5 -20t-31 -29t-15.5 -36q0 -7 3 -15q24 -58 63.5 -84t103.5 -26q45 0 97 17t93 54.5t41 85.5q0 36 -26.5 60.5t-70 35.5t-79 15t-70.5 4q-3 0 -14 -1t-20.5 -1t-20.5 1t-17 5t-6 11q0 6 4 10t12 5t14 1.5t15 0t11 -0.5
q32 0 70.5 5.5t81.5 18.5t71 40t28 63q0 44 -41.5 64.5t-89.5 20.5q-243 0 -273 -87q-15 -50 -25 -50q-6 0 -9 3.5t-4 10t-0.5 12t1 13t0.5 9.5q0 31 -16 87.5t-16 84.5q0 6 4 12q4 2 6 2q5 0 13.5 -17.5t11.5 -17.5q1 0 3 2q7 7 15 13t19 9t18.5 5t22 3t20 1h22h19.5
q52 0 132.5 -19.5t113.5 -19.5q26 0 104.5 33.5t96.5 33.5q6 0 6 -8z" />
    <glyph glyph-name="afii10026" unicode="&#x418;" 
d="M618 564q0 -4 -10 -18.5t-10 -34.5v-399q0 -12 8.5 -23t8.5 -14q0 -22 -43.5 -66.5t-62.5 -44.5q-13 0 -33.5 16t-20.5 29q0 10 13 34.5t13 36.5v358q-50 -96 -151.5 -201.5t-186.5 -122.5v-4q0 -12 8.5 -23t8.5 -14q0 -22 -43.5 -66.5t-62.5 -44.5q-13 0 -33.5 16
t-20.5 29q0 10 13 34.5t13 36.5v441q0 32 -13 68.5t-13 43.5q0 20 15 20q19 0 83.5 -36.5t64.5 -51.5q0 -4 -10 -18.5t-10 -34.5v-373q47 27 80 53.5t54.5 50.5t39 63t28 69t27.5 91q5 16 15 72t20 79q3 6 10 6q13 0 25.5 -20t23 -47t15.5 -34q0 32 -13 68.5t-13 43.5
q0 20 15 20q19 0 83.5 -36.5t64.5 -51.5z" />
    <glyph glyph-name="afii10027" unicode="&#x419;" 
d="M389 697q-12 -18 -70.5 -35t-89.5 -17q-38 0 -38 14q0 10 19.5 45.5t26.5 35.5q5 0 19.5 -10.5t38 -21t49.5 -10.5q6 0 17.5 1.5t17.5 1.5q10 0 10 -4zM618 563q0 -4 -10 -18t-10 -35v-399q0 -12 8.5 -23t8.5 -14q0 -21 -43.5 -66t-62.5 -45q-13 0 -33.5 16t-20.5 29
q0 10 13 34.5t13 36.5v358q-50 -96 -151.5 -201.5t-186.5 -122.5v-4q0 -12 8.5 -23t8.5 -14q0 -21 -43.5 -66t-62.5 -45q-13 0 -33.5 16t-20.5 29q0 10 13 34.5t13 36.5v441q0 32 -13 68.5t-13 43.5q0 20 15 20q19 0 83.5 -36.5t64.5 -51.5q0 -4 -10 -18t-10 -35v-373
q95 54 149.5 142t85.5 209q3 11 12 57.5t17 69.5q1 6 10 6q13 0 25.5 -20t23 -47t15.5 -34q0 32 -13 68.5t-13 43.5q0 20 15 20q19 0 83.5 -36.5t64.5 -51.5z" />
    <glyph glyph-name="afii10028" unicode="&#x41a;" horiz-adv-x="630" 
d="M618 150q0 -35 -50 -94q-5 -6 -13.5 -28t-17 -39.5t-15.5 -17.5q-9 0 -20.5 10t-14.5 12q-17 9 -34.5 20.5t-31.5 21.5t-32 25.5t-28.5 24.5t-29.5 28l-27 27t-28 30t-25.5 28t-27 30.5t-25.5 28.5q-9 -1 -27 -5t-28 -5v-138q0 -12 8.5 -23t8.5 -14q0 -22 -43.5 -66.5
t-62.5 -44.5q-14 0 -34 16t-20 30q0 9 13 34t13 36v442q0 32 -13 68.5t-13 43.5q0 20 15 20q19 0 83.5 -36.5t64.5 -51.5q0 -4 -10 -18t-10 -35v-81q36 -72 68 -104q72 55 145.5 145t73.5 154q0 30 19 30q10 0 25 -17q51 -62 85 -91q20 -15 21 -27l-3 -6q-5 -5 -29 -5
q-10 0 -15 -5q-83 -80 -141 -125t-145 -92q59 -62 132.5 -104t144.5 -42q19 0 50.5 9.5t36.5 9.5q7 0 7 -9zM175 299q-15 22 -32 65v-78q13 0 32 13z" />
    <glyph glyph-name="afii10029" unicode="&#x41b;" horiz-adv-x="727" 
d="M683 129q0 -22 -45 -93.5t-61 -71.5q-20 0 -58.5 67t-83 171t-69.5 166t-44 113q-59 -145 -148 -289t-185 -218q-14 -10 -24 -10t-10 8q0 7 14 24q94 105 159.5 254.5t65.5 280.5q0 12 -0.5 36.5t-0.5 36.5v6v7.5t1 6.5t3.5 5.5t6.5 1.5q13 0 44 -21.5t50 -24.5l-15 39
q0 26 31 26q4 0 46.5 -18t71.5 -18q4 0 11 1t10 1q15 0 15 -21q0 -4 -3 -10q-28 -28 -28 -52q0 -5 2 -13q83 -227 125 -317q3 -8 8.5 -19.5t14 -27.5t18.5 -25t17 -6l18 -3q5 0 16 7t18 7q9 0 9 -7z" />
    <glyph glyph-name="afii10030" unicode="&#x41c;" horiz-adv-x="987" 
d="M985 -33q0 -5 -4 -5q-6 0 -15 9q-99 95 -172 233.5t-115 289.5q-8 -15 -31.5 -59t-36 -66t-33.5 -57t-41.5 -62.5t-42.5 -52.5q0 -1 3.5 -9.5t5 -13.5t5.5 -14t7.5 -14.5t7.5 -11.5t8.5 -9t9.5 -3q6 0 17 7t19 7t8 -10q0 -21 -45 -91.5t-60 -70.5q-23 0 -49.5 48
t-49 119.5t-36 121t-21.5 85.5q-32 -159 -204 -351l-6 -8q-6 -8 -10.5 -12.5t-8.5 -4.5q-5 0 -50 64.5t-45 75.5q0 14 14 14q7 0 22.5 -4t23.5 -4q53 0 108.5 51t91 112.5t52.5 114.5q-5 23 -15 76t-20.5 92t-26.5 73q0 26 31 26q4 0 46.5 -18t71.5 -18q3 0 10 1t11 1
q15 0 15 -21q0 -4 -3 -10q-28 -28 -28 -52q0 -54 26 -149.5t52 -154.5q105 135 105 385v6v7.5t1 6.5t3.5 5.5t6.5 1.5q21 0 41 -20q4 4 5 8t0 11.5t-1 9.5q0 10 10 10q20 0 63.5 -23.5t66.5 -41.5q4 -3 6.5 -7.5t4 -8t2 -9.5t0.5 -9v-10v-9q0 -138 47.5 -268t134.5 -290
q7 -14 7 -20z" />
    <glyph glyph-name="afii10031" unicode="&#x41d;" horiz-adv-x="653" 
d="M619 561q0 -4 -10 -18t-10 -35v-399q0 -11 8.5 -23t8.5 -14q0 -22 -43.5 -66.5t-62.5 -44.5q-14 0 -34 16t-20 30q0 9 13 34t13 36v209h-338v-177q0 -11 8.5 -23t8.5 -14q0 -22 -43.5 -66.5t-62.5 -44.5q-14 0 -34 16t-20 30q0 9 13 34t13 36v446q0 30 -13 65t-13 43
q0 20 15 20q19 0 83.5 -36.5t64.5 -51.5q0 -4 -10 -18t-10 -35v-193h87l16.5 16.5l24.5 24.5t24 20.5t19 9.5q4 0 12.5 -6t19 -15.5t19 -18.5t18 -19t11.5 -12h87v204q0 30 -13 65t-13 43q0 20 15 20q19 0 83.5 -36.5t64.5 -51.5z" />
    <glyph glyph-name="afii10032" unicode="&#x41e;" 
d="M595 317q0 -82 -33.5 -158t-100.5 -127t-151 -51q-125 0 -204.5 103.5t-79.5 232.5q0 68 29 138q33 13 63 42t46.5 53t40.5 65q52 22 105 22q34 0 84 -18t76 -18q10 0 30 2.5t30 2.5q4 -2 4 -6q0 -6 -13 -22t-13 -26q0 -4 5 -12q82 -101 82 -223zM478 317q0 40 -9 86
t-27.5 93.5t-53 78.5t-78.5 31t-78 -31.5t-52.5 -78.5t-27.5 -93.5t-9 -85.5q0 -40 8.5 -88.5t26.5 -99t52.5 -84t79.5 -33.5t79.5 33.5t52.5 84.5t27 99t9 88z" />
    <glyph glyph-name="afii10033" unicode="&#x41f;" horiz-adv-x="651" 
d="M618 561q0 -4 -10 -18.5t-10 -34.5v-399q0 -12 8.5 -23t8.5 -14q0 -22 -43.5 -66.5t-62.5 -44.5q-13 0 -33.5 16t-20.5 28t13 36.5t13 35.5v515h-305q-16 0 -24.5 -12.5t-8.5 -29.5v-441q0 -12 8.5 -23t8.5 -14q0 -22 -43.5 -66.5t-62.5 -44.5q-13 0 -33.5 16t-20.5 28
t13 36.5t13 35.5v470q0 22 -7 43.5t-15 36t-8 17.5l4 6q5 3 17 3q29 0 86.5 -14.5t87.5 -14.5h274q-1 2 -3.5 6t-3.5 6q11 16 18 16q19 0 80.5 -38t61.5 -53z" />
    <glyph glyph-name="afii10034" unicode="&#x420;" 
d="M630 532l-3 -8q-5 -3 -24.5 -3.5t-27.5 -10.5q-18 -100 -85 -176t-156 -117t-191 -53v-55q0 -12 8.5 -23t8.5 -14q0 -21 -43.5 -66t-62.5 -45q-14 0 -34 16t-20 30q0 9 13 34t13 36v470q0 31 -15 64l-15 33l4 6q5 3 17 3q29 0 86.5 -14.5t87.5 -14.5h296q5 0 13.5 13
t17.5 13q2 0 8 -3q103 -93 104 -115zM466 561q0 7 -2 13t-6.5 9l-7.5 5t-11 3t-11 1h-12.5h-11.5h-230q-14 0 -22.5 -10.5t-8.5 -24.5v-361q61 5 138.5 70t131 150t53.5 145z" />
    <glyph glyph-name="afii10035" unicode="&#x421;" horiz-adv-x="700" 
d="M663 78q0 -35 -66.5 -60t-130 -33t-101.5 -8q-91 0 -145 23q-115 47 -167 109t-52 177q0 122 159 226q8 4 8 8t-9 4q-6 0 -13 -2t-12.5 -4.5t-10 -5t-7.5 -4.5l-2 -2q-16 0 -51.5 59t-35.5 78q0 9 6 9q18 0 96.5 -33.5t104.5 -33.5q33 0 113.5 19.5t132.5 19.5h19.5h22
t20 -1t22 -3t18.5 -5t19 -9t15 -13q2 -2 3 -2q3 0 11.5 17.5t13.5 17.5q10 0 10 -14q0 -28 -16 -84.5t-16 -87.5q0 -4 1 -12t1 -12q0 -24 -14 -24q-10 0 -25 50q-27 79 -231 79q-28 0 -42 -1q-59 -3 -122.5 -38.5t-108 -93.5t-44.5 -118q0 -66 43.5 -116.5t104.5 -74
t124 -23.5q74 0 143.5 29t110.5 84q11 14 16.5 46.5t10 56.5t13.5 24q7 -3 7 -18q0 -10 -2 -31t-2 -32q0 -31 9 -48.5t19.5 -23t19.5 -21.5t9 -44z" />
    <glyph glyph-name="afii10036" unicode="&#x422;" horiz-adv-x="727" 
d="M704 583q0 -59 -49.5 -115t-108.5 -56q-5 0 -7 5q29 20 48 57.5t19 73.5q0 15 -6 30t-19 15h-131q-33 0 -33 -37v-447q0 -12 8.5 -23t8.5 -14q0 -22 -43.5 -66.5t-62.5 -44.5q-13 0 -33.5 16t-20.5 29q0 10 13 34.5t13 36.5v482q0 34 -15 34h-111q-6 0 -15 -18
t-18.5 -40.5t-11.5 -26.5q-17 -28 -59.5 -73.5t-62.5 -45.5q-2 0 -6 2q-3 3 -3 11q0 14 14.5 62t14.5 81q0 27 -8.5 58t-8.5 32q0 16 17 16q9 0 40.5 -13.5t50.5 -13.5h156q-3 6 -3 13q0 14 21 14q20 0 58.5 -13.5t48.5 -13.5h150q22 31 72 31q83 0 83 -72z" />
    <glyph glyph-name="afii10037" unicode="&#x423;" horiz-adv-x="643" 
d="M632 519l-3 -6q-5 -5 -29 -5q-14 0 -21 -14q-6 -12 -17 -37.5t-17 -37.5q-87 -180 -207 -282q-173 -148 -318 -182l-7 -1q-13 0 -13 9q0 12 32 26q143 71 249 205q-69 42 -132.5 151.5t-101.5 214.5q-3 8 -22 40t-19 37q0 14 9 14q25 0 73 -5t73 -5q6 0 10 -5t5 -14
t1 -16.5t-1 -17t-1 -12.5q0 -95 34 -199t97 -154q63 80 114.5 194t61.5 207q2 30 19 30q10 0 25 -17q57 -67 85 -91q19 -17 21 -27z" />
    <glyph glyph-name="afii10038" unicode="&#x424;" horiz-adv-x="914" 
d="M904 509l-3 -8q-4 -3 -17 -4.5t-20 -10.5q-27 -150 -118.5 -228.5t-245.5 -96.5v-52q0 -12 8.5 -23t8.5 -14q0 -22 -43.5 -66.5t-62.5 -44.5q-14 0 -34 16t-20 30q0 9 13 34t13 36v84q-142 16 -225.5 95t-114.5 221q-4 5 -24.5 17t-20.5 19q0 22 43.5 52t65.5 30
q10 0 16.5 -5t12.5 -5h234q6 5 6 13q0 11 -12 29.5t-12 25.5t34 7q33 0 86 -10.5t53 -29.5q0 -6 -7 -15.5t-7 -14.5q1 -5 10 -5h216q11 0 11 6q0 7 -18 25t-18 23q0 7 11 7q4 0 10 -3q10 -8 46 -21t68 -32.5t44 -49.5q13 -15 13 -31zM751 516q0 8 -1.5 14t-3 9.5t-6.5 6.5
t-7 4.5t-9.5 2t-10 0.5h-12h-12.5h-158q-14 0 -22.5 -10t-8.5 -25v-325q62 5 121.5 60.5t94.5 128.5t35 134zM383 193v325q0 15 -8.5 25t-22.5 10h-152h-12.5h-12t-10 -0.5t-10 -2t-7 -4.5t-6 -7t-3 -10t-1.5 -14q0 -61 33 -133.5t91.5 -128t120.5 -60.5z" />
    <glyph glyph-name="afii10039" unicode="&#x425;" horiz-adv-x="619" 
d="M605 519l-3 -6q-4 -5 -29 -5q-10 0 -31.5 -19.5t-48.5 -51t-49.5 -59t-46 -58.5t-25.5 -34q21 -31 69.5 -93t58.5 -62q9 0 25.5 20.5t24.5 20.5q14 0 14 -12q0 -6 -9 -29t-10 -28q-11 -42 -11 -106v-10q0 -12 -10.5 -20.5t-22.5 -8.5t-42.5 31.5t-67.5 78.5t-60 77.5
t-39 52.5q-238 -238 -284 -238q-15 0 -15 12q0 6 4 12t8.5 9.5t12 9t9.5 7.5q105 82 213 256q-2 4 -32.5 49t-59 88.5t-61 94t-52.5 85t-20 41.5q0 16 11 25t28 9t51 -6t52 -6q11 0 28.5 6.5t25.5 6.5t8 -9q0 -14 -22 -32t-22 -31q0 -7 11.5 -28t31 -51.5t36 -55.5t36 -53.5
t22.5 -32.5q142 235 143 258q3 30 19 30q12 0 25 -17q51 -62 85 -91q20 -15 21 -27z" />
    <glyph glyph-name="afii10040" unicode="&#x426;" horiz-adv-x="672" 
d="M662 -10q0 -59 -49.5 -115t-108.5 -56q-5 0 -7 5q29 20 48 57.5t19 73.5q0 31 -11.5 38t-43.5 7q-4 0 -40 -20t-54 -20q-28 0 -28 40h-244q-22 0 -60.5 -19.5t-43.5 -19.5q-8 0 -23.5 15.5t-15.5 23.5q0 3 6.5 20t13 43t6.5 49v406q0 32 -13 68.5t-13 43.5q0 20 15 20
q19 0 83.5 -36.5t64.5 -51.5q0 -4 -10 -18.5t-10 -34.5v-442q0 -35 26 -35h221v485q0 32 -13 68.5t-13 43.5q0 20 15 20q19 0 83.5 -36.5t64.5 -51.5q0 -4 -10 -18.5t-10 -34.5v-477q22 31 72 31q83 0 83 -72z" />
    <glyph glyph-name="afii10041" unicode="&#x427;" horiz-adv-x="635" 
d="M581 563q0 -4 -10 -18.5t-10 -34.5v-403q0 -12 8.5 -23t8.5 -14q0 -22 -43.5 -66.5t-62.5 -44.5q-13 0 -33.5 16t-20.5 29q0 10 13 34.5t13 36.5v275q-65 -79 -127 -116t-165 -60q-4 -1 -9.5 -22.5t-17.5 -21.5q-19 0 -71.5 47.5t-52.5 64.5t13 26t13 18v233
q0 32 -13 68.5t-13 43.5q0 20 15 20q19 0 83.5 -36.5t64.5 -51.5q0 -4 -10 -18.5t-10 -34.5v-224q108 0 172 21.5t128 92.5v119q0 32 -13 68.5t-13 43.5q0 20 15 20q19 0 83.5 -36.5t64.5 -51.5z" />
    <glyph glyph-name="afii10042" unicode="&#x428;" horiz-adv-x="766" 
d="M739 56q0 -20 -43.5 -57t-66.5 -37q-28 0 -28 38h-165q-4 0 -40 -20t-54 -20q-28 0 -28 40h-171q-22 0 -60.5 -19.5t-43.5 -19.5q-8 0 -23.5 15.5t-15.5 23.5q0 3 6.5 20t13 43t6.5 49v407q0 32 -13 68.5t-13 43.5q0 20 15 20q19 0 83.5 -36.5t64.5 -51.5q0 -4 -10 -18
t-10 -35v-447q0 -13 8.5 -22t21.5 -9h140v487q0 32 -13 68.5t-13 43.5q0 20 15 20q19 0 83.5 -36.5t64.5 -51.5q0 -4 -10 -18t-10 -35v-445q0 -12 8.5 -22.5t19.5 -10.5h143v489q0 32 -13 68.5t-13 43.5q0 20 15 20q19 0 83.5 -36.5t64.5 -51.5q0 -4 -10 -18t-10 -35v-434h3
q8 1 13 -6.5t5 -15.5z" />
    <glyph glyph-name="afii10043" unicode="&#x429;" horiz-adv-x="880" 
d="M873 -10q0 -59 -49.5 -115t-108.5 -56q-5 0 -7 5q27 19 45 54.5t18 69.5q0 22 -10 37t-31 15h-294q-4 0 -40 -20t-54 -20q-28 0 -28 40h-171q-22 0 -60.5 -19.5t-43.5 -19.5q-8 0 -23.5 15.5t-15.5 23.5q0 3 6.5 20t13 43t6.5 49v407q0 32 -13 68.5t-13 43.5q0 20 15 20
q19 0 83.5 -36.5t64.5 -51.5q0 -4 -10 -18t-10 -35v-447q0 -13 8.5 -22t21.5 -9h140v487q0 32 -13 68.5t-13 43.5q0 20 15 20q19 0 83.5 -36.5t64.5 -51.5q0 -4 -10 -18t-10 -35v-445q0 -12 8.5 -22.5t19.5 -10.5h143v489q0 32 -13 68.5t-13 43.5q0 20 15 20
q19 0 83.5 -36.5t64.5 -51.5q0 -4 -10 -18t-10 -35v-481q22 31 72 31q83 0 83 -72z" />
    <glyph glyph-name="afii10044" unicode="&#x42a;" horiz-adv-x="731" 
d="M715 361q0 -8 -17 -20t-19 -24q-10 -81 -70.5 -154t-144 -116t-164.5 -48q-8 -13 -41.5 -25.5t-52.5 -12.5q-23 0 -23 20v570q0 42 -23 42q-26 0 -36.5 -33.5t-10.5 -66.5q0 -80 35 -150q-62 15 -104 95.5t-42 151.5q0 54 29 54q7 0 29.5 -9.5t40.5 -9.5q36 0 82 24
q3 -1 22.5 -8t35.5 -13.5t34.5 -15.5t29.5 -18.5t11 -18.5q0 -7 -8 -25.5t-8 -29.5v-154h413q2 -4 2 -5zM545 292q0 42 -50 42h-155q-20 0 -30 -14t-10 -34v-255q42 1 101 48.5t101.5 109.5t42.5 103z" />
    <glyph glyph-name="afii10045" unicode="&#x42b;" horiz-adv-x="784" 
d="M750 562q0 -4 -10 -18t-10 -35v-404q0 -11 8.5 -23t8.5 -14q0 -22 -43.5 -66.5t-62.5 -44.5q-14 0 -34 16.5t-20 30.5q0 8 13 32.5t13 36.5v449q0 29 -13 64.5t-13 43.5q0 20 15 20q19 0 83.5 -36.5t64.5 -51.5zM558 362q0 -9 -17.5 -21t-18.5 -24q-8 -80 -69 -153.5
t-145.5 -116.5t-164.5 -48q-8 -13 -41.5 -25.5t-52.5 -12.5q-23 0 -23 20v539q0 32 -13 68.5t-13 43.5q0 20 15 20q19 0 83.5 -36.5t64.5 -51.5q0 -4 -10 -18t-10 -35v-145h413q2 -2 2 -4zM388 291q0 42 -50 42h-155q-20 0 -30 -14t-10 -34v-255q42 1 101 48.5t101.5 109.5
t42.5 103z" />
    <glyph glyph-name="afii10046" unicode="&#x42c;" horiz-adv-x="584" 
d="M558 362q0 -9 -17.5 -21t-18.5 -24q-8 -80 -69 -153.5t-145.5 -116.5t-164.5 -48q-8 -13 -41.5 -25.5t-52.5 -12.5q-23 0 -23 20v539q0 32 -13 68.5t-13 43.5q0 20 15 20q19 0 83.5 -36.5t64.5 -51.5q0 -4 -10 -18t-10 -35v-145h413q2 -2 2 -4zM388 291q0 42 -50 42h-155
q-20 0 -30 -14t-10 -34v-255q42 1 101 48.5t101.5 109.5t42.5 103z" />
    <glyph glyph-name="afii10047" unicode="&#x42d;" horiz-adv-x="681" 
d="M722 338q0 -4 -3 -7t-8 -5.5t-10.5 -4t-12.5 -3t-12 -2t-11 -1.5t-8 -1q2 -18 2 -28q0 -115 -52 -177t-167 -109q-54 -23 -145 -23q-38 0 -101.5 8t-130 33t-66.5 60q0 23 6 37t14.5 21t16.5 14.5t14 23t6 41.5q0 11 -2 32t-2 31q0 18 7 18q9 0 13.5 -23.5t10 -56.5
t16.5 -47q42 -55 111 -84t144 -29q65 0 125.5 23.5t103.5 75t43 118.5q0 16 -5 36q-171 -23 -272 -23q-10 0 -31 -9t-29 -9q-10 0 -17 39.5t-7 60.5t4.5 49.5t14.5 28.5q11 0 33 -33q26 -39 108 -55.5t151 -15.5l32 1q-39 84 -122 131t-179 47q-203 0 -230 -79
q-15 -50 -25 -50q-6 0 -9 3.5t-4 10t-0.5 12t1 13t0.5 9.5q0 31 -16 87.5t-16 84.5q0 6 4 12q4 2 5 2q6 0 14.5 -17.5t11.5 -17.5q1 0 3 2q6 7 14 13t19 9t19 5t22.5 3t20.5 1h22h19q52 0 132.5 -19.5t113.5 -19.5q27 0 104.5 33.5t97.5 33.5q5 0 5 -7q0 -19 -35 -79
t-50 -60q-1 0 -16.5 9t-30.5 9q-9 0 -9 -4q2 -3 33.5 -25.5t69 -62t54.5 -86.5q5 0 19.5 2t22.5 2q31 0 31 -12z" />
    <glyph glyph-name="afii10048" unicode="&#x42e;" horiz-adv-x="807" 
d="M768 317q0 -82 -33.5 -158t-100.5 -127t-151 -51q-116 0 -199.5 94t-83.5 211h-57v-178q0 -12 8.5 -23t8.5 -14q0 -21 -43.5 -66t-62.5 -45q-14 0 -34 16t-20 30q0 9 13 34t13 36v445q0 32 -13 68.5t-13 43.5q0 20 15 20q19 0 83.5 -36.5t64.5 -51.5q0 -4 -10 -18
t-10 -35v-195h57v14q0 27 3.5 47.5t7.5 33t17 43.5q33 13 63 42t46.5 53t40.5 65q52 22 105 22q34 0 84 -18t76 -18q10 0 30 2.5t30 2.5q4 -2 4 -6q0 -6 -13 -22t-13 -26q0 -4 5 -12q43 -55 62.5 -106t19.5 -117zM651 318q0 40 -9 86t-27.5 93.5t-53 78.5t-78.5 31
q-43 0 -77 -31.5t-52.5 -79t-27.5 -94t-9 -85.5q0 -40 8.5 -88t26 -98.5t52 -84t79.5 -33.5t79.5 33.5t52.5 84.5t27 99t9 88z" />
    <glyph glyph-name="afii10049" unicode="&#x42f;" horiz-adv-x="725" 
d="M691 600q0 -4 -10 -18t-10 -35v-437q0 -12 8.5 -23t8.5 -14q0 -21 -43.5 -66t-62.5 -45q-14 0 -34 16t-20 30q0 9 13 34t13 36v86q-91 10 -130 26q-60 -85 -186.5 -149.5t-239.5 -76.5q85 36 185 118t142 157q-71 37 -130 115t-73 156q-7 8 -21 9.5t-24 3t-10 9.5
q0 14 51.5 66t60.5 52t17.5 -13t13.5 -13h344q-1 7 -8.5 20.5t-7.5 22.5q0 7 4.5 13.5t10.5 6.5q17 0 72.5 -37.5t63.5 -41.5q2 -2 2 -8zM554 196v361q0 15 -8.5 25t-22.5 10h-236q-55 0 -55 -24q0 -47 40.5 -122.5t79.5 -116.5q4 12 4 29q0 8 -2.5 22.5t-2.5 21.5q0 9 9 9
q4 0 12 -2q5 -1 16 -12t23 -25t16 -18q6 -6 28.5 -20.5t37.5 -29t15 -27.5q0 -7 -23 -14.5t-31 -23.5q57 -43 100 -43z" />
    <glyph glyph-name="afii10065" unicode="&#x430;" horiz-adv-x="683" 
d="M682 -32q0 -6 -3 -6q-26 13 -92 114t-81 141h-252q-7 -12 -41.5 -82t-65.5 -114t-63 -59q-20 20 -53 63.5t-34 58.5q2 6 9 8q49 13 86 43.5t78 81.5q-2 0 -10.5 -0.5t-13.5 -0.5t-12 1.5t-10.5 5t-3.5 9.5q0 7 6 11t16 5.5t19 1.5t19.5 -1t13.5 -1q34 41 90 154t79 178
q-19 66 -19 71q0 1 5 1q14 0 70.5 -11t67.5 -16v-4q0 -3 -6.5 -20t-6.5 -28q0 -19 38.5 -148.5t54.5 -176.5q3 0 14.5 1t21 1t20 -1t17 -5.5t6.5 -11.5t-5 -11t-14.5 -5t-17.5 -1t-18 1t-13 1q39 -114 83 -194q21 -42 21 -55zM488 248q-96 193 -112 285q-7 -27 -16.5 -55.5
t-23.5 -62.5t-21.5 -53t-26.5 -61t-24 -53h43q2 2 19 19.5t30.5 29t20.5 11.5q5 0 15.5 -8t19 -17t20 -21t13.5 -14h43z" />
    <glyph glyph-name="afii10066" unicode="&#x431;" 
d="M636 239q0 -3 -1 -5.5t-3.5 -4t-4.5 -2.5t-5.5 -1h-6h-6.5h-5q-6 0 -11.5 -3.5t-8 -6.5t-7.5 -10.5t-6 -9.5q-68 -102 -175 -146t-246 -50l-7 -1q-8 -13 -41.5 -25.5t-52.5 -12.5q-23 0 -23 20v656q0 13 15 13q8 0 42.5 -13t59.5 -13h291q26 0 59.5 14t36.5 14
q15 0 32.5 -45t17.5 -64q0 -3 -2 -9q-36 -36 -87 -61t-98 -25q-16 0 -23 4q29 13 57.5 51.5t28.5 69.5q0 7 -6 14t-13 7q-3 0 -5 -1h-247q-19 0 -30.5 -16.5t-11.5 -36.5v-223h52t69.5 0.5t68.5 4t73 9.5t58.5 17.5t47.5 27.5q3 3 7 3q18 0 67.5 -59.5t49.5 -80.5zM496 278
q0 3 -2 7h-351v-255q78 0 158 45.5t138 112.5q57 64 57 90z" />
    <glyph glyph-name="afii10067" unicode="&#x432;" 
d="M637 238q0 -4 -2 -6.5t-4 -4t-6 -2t-6.5 -0.5h-7h-5.5q-4 0 -7 -1t-6 -3t-5 -3.5t-5 -5.5t-4 -5.5t-3.5 -6t-3.5 -5.5q-45 -79 -160 -136t-211 -59l-58 -1q-8 -13 -41.5 -25.5t-52.5 -12.5q-23 0 -23 20v656q0 13 15 13q8 0 42.5 -13t59.5 -13h325q5 0 13.5 13t17.5 13
q2 0 8 -3q16 -14 36.5 -32.5t44 -45t23.5 -37.5l-3 -8q-5 -3 -24.5 -3.5t-27.5 -10.5q-45 -53 -108.5 -107t-109.5 -65l-86 -21q200 0 261 58q3 3 7 3q18 0 67.5 -59.5t49.5 -80.5zM471 583q0 10 -10 10h-275q-21 0 -32 -15t-11 -36v-225q105 19 192.5 88t132.5 167
q3 4 3 11zM496 279q0 3 -2 7h-351v-255q78 0 158 45.5t138 112.5q57 64 57 90z" />
    <glyph glyph-name="afii10068" unicode="&#x433;" horiz-adv-x="581" 
d="M564 543q0 -3 -2 -9q-36 -36 -87 -61t-98 -25q-16 0 -23 4q29 13 57.5 51.5t28.5 69.5q0 7 -6 14t-13 7q-3 0 -5 -1h-273v-484q0 -12 8.5 -23t8.5 -14q0 -22 -43.5 -66.5t-62.5 -44.5q-14 0 -34 16t-20 30q0 10 13 34.5t13 35.5v470q0 22 -7 43.5t-15 35.5t-8 18l4 6
q5 3 17 3q29 0 86.5 -14.5t87.5 -14.5h227q26 0 59.5 14t36.5 14q15 0 32.5 -45t17.5 -64z" />
    <glyph glyph-name="afii10069" unicode="&#x434;" horiz-adv-x="850" 
d="M852 -10q0 -59 -49.5 -115t-108.5 -56q-5 0 -7 5q29 20 48 57.5t19 73.5q0 15 -6 30t-19 15h-547q-76 -76 -85 -76q-11 0 -54 41.5t-43 50.5q0 8 9.5 12t25 5t29.5 1t29 -1t18 -1q67 47 126.5 215t59.5 266q0 14 -0.5 41.5t-0.5 41.5v6v7.5t1 6.5t3.5 5.5t6.5 1.5
q21 0 41 -20l29 -13l-15 39q0 26 31 26q4 0 46.5 -18t71.5 -18q3 0 10 1t11 1q15 0 15 -21q0 -4 -3 -10q-28 -28 -28 -52q0 -35 78.5 -252t102.5 -255q22 31 72 31q83 0 83 -72zM559 54q0 12 -11 36q-88 205 -139 391q-42 -108 -117 -247t-135 -202h373q29 0 29 22z" />
    <glyph glyph-name="afii10070" unicode="&#x435;" 
d="M637 9q0 -5 -6 -9l-488 -1q-22 0 -60.5 -19.5t-43.5 -19.5q-8 0 -23.5 15.5t-15.5 23.5q0 3 6.5 20t13 43t6.5 49v418q0 29 -15 64.5t-15 36.5l4 6q2 2 8 2q8 0 33 -16t63 -32.5t78 -16.5h189l29 23q28 24 49 39t29 15q10 0 48.5 -42.5t38.5 -56.5q0 -5 -6 -9h-379
q-18 0 -27.5 -17t-9.5 -37v-171h228l29 23q28 24 49 39t29 15q10 0 48.5 -42.5t38.5 -56.5q0 -5 -6 -9h-416v-200q0 -22 9.5 -38t29.5 -16l261 -1l29 23q28 24 49 39t29 15q10 0 48.5 -42.5t38.5 -56.5z" />
    <glyph glyph-name="afii10072" unicode="&#x436;" horiz-adv-x="907" 
d="M905 140q0 -34 -41 -94q-4 -6 -11 -28t-14 -39.5t-12 -17.5q-9 0 -17 10t-12 12q-28 19 -54 43.5t-51.5 56.5t-42 54.5t-44 63t-39.5 56.5q-8 -1 -25.5 -4.5t-27.5 -4.5v-138q0 -12 8.5 -23t8.5 -14q0 -22 -43.5 -66.5t-62.5 -44.5q-14 0 -34 16t-20 30q0 9 13 34t13 36
v169q-10 0 -28 4.5t-25 5.5q-8 -11 -33.5 -47t-37 -52t-35.5 -47t-41 -49.5t-41 -40.5t-47 -38q-4 -2 -12 -12t-16 -10q-5 0 -12.5 18t-14.5 40t-11 27q-40 59 -40 94q0 10 6 10l24 -10q24 -9 41 -9q60 0 121.5 46.5t109.5 108.5q-145 96 -201 156q-10 10 -26 31t-25 30
q-4 4 -27 4q-20 0 -20 12q0 9 21 27q34 29 85 91q13 17 25 17q19 0 19 -39q0 -62 57.5 -146t120.5 -144q12 14 37.5 55t25.5 51v90q0 32 -13 68.5t-13 43.5q0 20 15 20q19 0 83.5 -36.5t64.5 -51.5q0 -4 -10 -18.5t-10 -34.5v-83q7 -16 16.5 -33t23.5 -38.5t20 -30.5
q59 51 108 138.5t51 158.5q0 30 19 30q12 0 25 -17q51 -62 85 -91q20 -15 21 -27l-3 -6q-5 -5 -30 -5q-9 0 -14 -5q-10 -11 -32.5 -36.5t-31.5 -35t-27 -29t-30 -30t-30.5 -26t-37 -29.5t-41.5 -29q48 -62 108.5 -109t120.5 -47q17 0 41 9l23 9q6 0 6 -10zM539 299
q-3 5 -25 66l-1 -79q9 0 26 13zM396 286v78q-12 -39 -26 -65q17 -13 26 -13z" />
    <glyph glyph-name="afii10073" unicode="&#x437;" horiz-adv-x="684" 
d="M667 644q0 -20 -35 -79t-52 -59q-2 0 -3 1q-22 17 -42 17q-9 0 -9 -3q4 -9 13.5 -18t15 -21.5t5.5 -36.5q0 -80 -104 -128q97 0 151 -36.5t54 -128.5q0 -51 -40.5 -87.5t-103 -53t-116 -23.5t-102.5 -7q-184 0 -289 169q-12 20 -12 44q0 25 16 28q21 4 66.5 10t69.5 11
q2 0 9 2t10 2q9 0 15.5 -7t6.5 -16q0 -8 -15.5 -20t-31 -29t-15.5 -36q0 -7 3 -15q24 -58 63.5 -84t103.5 -26q45 0 97 17t93 54.5t41 85.5q0 36 -26.5 60.5t-70 35.5t-79 15t-70.5 4q-3 0 -14 -1t-20.5 -1t-20.5 1t-17 5t-6 11q0 6 4 10t12 5t14 1.5t15 0t11 -0.5
q32 0 70.5 5.5t81.5 18.5t71 40t28 63q0 44 -41.5 64.5t-89.5 20.5q-243 0 -273 -87q-15 -50 -25 -50q-6 0 -9 3.5t-4 10t-0.5 12t1 13t0.5 9.5q0 31 -16 87.5t-16 84.5q0 6 4 12q4 2 6 2q5 0 13.5 -17.5t11.5 -17.5q1 0 3 2q7 7 15 13t19 9t18.5 5t22 3t20 1h22h19.5
q52 0 132.5 -19.5t113.5 -19.5q26 0 104.5 33.5t96.5 33.5q6 0 6 -8z" />
    <glyph glyph-name="afii10074" unicode="&#x438;" 
d="M618 564q0 -4 -10 -18.5t-10 -34.5v-399q0 -12 8.5 -23t8.5 -14q0 -22 -43.5 -66.5t-62.5 -44.5q-13 0 -33.5 16t-20.5 29q0 10 13 34.5t13 36.5v358q-50 -96 -151.5 -201.5t-186.5 -122.5v-4q0 -12 8.5 -23t8.5 -14q0 -22 -43.5 -66.5t-62.5 -44.5q-13 0 -33.5 16
t-20.5 29q0 10 13 34.5t13 36.5v441q0 32 -13 68.5t-13 43.5q0 20 15 20q19 0 83.5 -36.5t64.5 -51.5q0 -4 -10 -18.5t-10 -34.5v-373q47 27 80 53.5t54.5 50.5t39 63t28 69t27.5 91q5 16 15 72t20 79q3 6 10 6q13 0 25.5 -20t23 -47t15.5 -34q0 32 -13 68.5t-13 43.5
q0 20 15 20q19 0 83.5 -36.5t64.5 -51.5z" />
    <glyph glyph-name="afii10075" unicode="&#x439;" 
d="M389 697q-12 -18 -70.5 -35t-89.5 -17q-38 0 -38 14q0 10 19.5 45.5t26.5 35.5q5 0 19.5 -10.5t38 -21t49.5 -10.5q6 0 17.5 1.5t17.5 1.5q10 0 10 -4zM618 563q0 -4 -10 -18t-10 -35v-399q0 -12 8.5 -23t8.5 -14q0 -21 -43.5 -66t-62.5 -45q-13 0 -33.5 16t-20.5 29
q0 10 13 34.5t13 36.5v358q-50 -96 -151.5 -201.5t-186.5 -122.5v-4q0 -12 8.5 -23t8.5 -14q0 -21 -43.5 -66t-62.5 -45q-13 0 -33.5 16t-20.5 29q0 10 13 34.5t13 36.5v441q0 32 -13 68.5t-13 43.5q0 20 15 20q19 0 83.5 -36.5t64.5 -51.5q0 -4 -10 -18t-10 -35v-373
q95 54 149.5 142t85.5 209q3 11 12 57.5t17 69.5q1 6 10 6q13 0 25.5 -20t23 -47t15.5 -34q0 32 -13 68.5t-13 43.5q0 20 15 20q19 0 83.5 -36.5t64.5 -51.5z" />
    <glyph glyph-name="afii10076" unicode="&#x43a;" horiz-adv-x="630" 
d="M618 150q0 -35 -50 -94q-5 -6 -13.5 -28t-17 -39.5t-15.5 -17.5q-9 0 -20.5 10t-14.5 12q-17 9 -34.5 20.5t-31.5 21.5t-32 25.5t-28.5 24.5t-29.5 28l-27 27t-28 30t-25.5 28t-27 30.5t-25.5 28.5q-9 -1 -27 -5t-28 -5v-138q0 -12 8.5 -23t8.5 -14q0 -22 -43.5 -66.5
t-62.5 -44.5q-14 0 -34 16t-20 30q0 9 13 34t13 36v442q0 32 -13 68.5t-13 43.5q0 20 15 20q19 0 83.5 -36.5t64.5 -51.5q0 -4 -10 -18t-10 -35v-81q36 -72 68 -104q72 55 145.5 145t73.5 154q0 30 19 30q10 0 25 -17q51 -62 85 -91q20 -15 21 -27l-3 -6q-5 -5 -29 -5
q-10 0 -15 -5q-83 -80 -141 -125t-145 -92q59 -62 132.5 -104t144.5 -42q19 0 50.5 9.5t36.5 9.5q7 0 7 -9zM175 299q-15 22 -32 65v-78q13 0 32 13z" />
    <glyph glyph-name="afii10077" unicode="&#x43b;" horiz-adv-x="727" 
d="M683 129q0 -22 -45 -93.5t-61 -71.5q-20 0 -58.5 67t-83 171t-69.5 166t-44 113q-59 -145 -148 -289t-185 -218q-14 -10 -24 -10t-10 8q0 7 14 24q94 105 159.5 254.5t65.5 280.5q0 12 -0.5 36.5t-0.5 36.5v6v7.5t1 6.5t3.5 5.5t6.5 1.5q13 0 44 -21.5t50 -24.5l-15 39
q0 26 31 26q4 0 46.5 -18t71.5 -18q4 0 11 1t10 1q15 0 15 -21q0 -4 -3 -10q-28 -28 -28 -52q0 -5 2 -13q83 -227 125 -317q3 -8 8.5 -19.5t14 -27.5t18.5 -25t17 -6l18 -3q5 0 16 7t18 7q9 0 9 -7z" />
    <glyph glyph-name="afii10078" unicode="&#x43c;" horiz-adv-x="987" 
d="M985 -33q0 -5 -4 -5q-6 0 -15 9q-99 95 -172 233.5t-115 289.5q-8 -15 -31.5 -59t-36 -66t-33.5 -57t-41.5 -62.5t-42.5 -52.5q0 -1 3.5 -9.5t5 -13.5t5.5 -14t7.5 -14.5t7.5 -11.5t8.5 -9t9.5 -3q6 0 17 7t19 7t8 -10q0 -21 -45 -91.5t-60 -70.5q-23 0 -49.5 48
t-49 119.5t-36 121t-21.5 85.5q-32 -159 -204 -351l-6 -8q-6 -8 -10.5 -12.5t-8.5 -4.5q-5 0 -50 64.5t-45 75.5q0 14 14 14q7 0 22.5 -4t23.5 -4q53 0 108.5 51t91 112.5t52.5 114.5q-5 23 -15 76t-20.5 92t-26.5 73q0 26 31 26q4 0 46.5 -18t71.5 -18q3 0 10 1t11 1
q15 0 15 -21q0 -4 -3 -10q-28 -28 -28 -52q0 -54 26 -149.5t52 -154.5q105 135 105 385v6v7.5t1 6.5t3.5 5.5t6.5 1.5q21 0 41 -20q4 4 5 8t0 11.5t-1 9.5q0 10 10 10q20 0 63.5 -23.5t66.5 -41.5q4 -3 6.5 -7.5t4 -8t2 -9.5t0.5 -9v-10v-9q0 -138 47.5 -268t134.5 -290
q7 -14 7 -20z" />
    <glyph glyph-name="afii10079" unicode="&#x43d;" horiz-adv-x="653" 
d="M619 561q0 -4 -10 -18t-10 -35v-399q0 -11 8.5 -23t8.5 -14q0 -22 -43.5 -66.5t-62.5 -44.5q-14 0 -34 16t-20 30q0 9 13 34t13 36v209h-338v-177q0 -11 8.5 -23t8.5 -14q0 -22 -43.5 -66.5t-62.5 -44.5q-14 0 -34 16t-20 30q0 9 13 34t13 36v446q0 30 -13 65t-13 43
q0 20 15 20q19 0 83.5 -36.5t64.5 -51.5q0 -4 -10 -18t-10 -35v-193h87l16.5 16.5l24.5 24.5t24 20.5t19 9.5q4 0 12.5 -6t19 -15.5t19 -18.5t18 -19t11.5 -12h87v204q0 30 -13 65t-13 43q0 20 15 20q19 0 83.5 -36.5t64.5 -51.5z" />
    <glyph glyph-name="afii10080" unicode="&#x43e;" 
d="M595 317q0 -82 -33.5 -158t-100.5 -127t-151 -51q-125 0 -204.5 103.5t-79.5 232.5q0 68 29 138q33 13 63 42t46.5 53t40.5 65q52 22 105 22q34 0 84 -18t76 -18q10 0 30 2.5t30 2.5q4 -2 4 -6q0 -6 -13 -22t-13 -26q0 -4 5 -12q82 -101 82 -223zM478 317q0 40 -9 86
t-27.5 93.5t-53 78.5t-78.5 31t-78 -31.5t-52.5 -78.5t-27.5 -93.5t-9 -85.5q0 -40 8.5 -88.5t26.5 -99t52.5 -84t79.5 -33.5t79.5 33.5t52.5 84.5t27 99t9 88z" />
    <glyph glyph-name="afii10081" unicode="&#x43f;" horiz-adv-x="651" 
d="M618 561q0 -4 -10 -18.5t-10 -34.5v-399q0 -12 8.5 -23t8.5 -14q0 -22 -43.5 -66.5t-62.5 -44.5q-13 0 -33.5 16t-20.5 28t13 36.5t13 35.5v515h-305q-16 0 -24.5 -12.5t-8.5 -29.5v-441q0 -12 8.5 -23t8.5 -14q0 -22 -43.5 -66.5t-62.5 -44.5q-13 0 -33.5 16t-20.5 28
t13 36.5t13 35.5v470q0 22 -7 43.5t-15 36t-8 17.5l4 6q5 3 17 3q29 0 86.5 -14.5t87.5 -14.5h274q-1 2 -3.5 6t-3.5 6q11 16 18 16q19 0 80.5 -38t61.5 -53z" />
    <glyph glyph-name="afii10082" unicode="&#x440;" 
d="M630 532l-3 -8q-5 -3 -24.5 -3.5t-27.5 -10.5q-18 -100 -85 -176t-156 -117t-191 -53v-55q0 -12 8.5 -23t8.5 -14q0 -21 -43.5 -66t-62.5 -45q-14 0 -34 16t-20 30q0 9 13 34t13 36v470q0 31 -15 64l-15 33l4 6q5 3 17 3q29 0 86.5 -14.5t87.5 -14.5h296q5 0 13.5 13
t17.5 13q2 0 8 -3q103 -93 104 -115zM466 561q0 7 -2 13t-6.5 9l-7.5 5t-11 3t-11 1h-12.5h-11.5h-230q-14 0 -22.5 -10.5t-8.5 -24.5v-361q61 5 138.5 70t131 150t53.5 145z" />
    <glyph glyph-name="afii10083" unicode="&#x441;" horiz-adv-x="700" 
d="M663 78q0 -35 -66.5 -60t-130 -33t-101.5 -8q-91 0 -145 23q-115 47 -167 109t-52 177q0 122 159 226q8 4 8 8t-9 4q-6 0 -13 -2t-12.5 -4.5t-10 -5t-7.5 -4.5l-2 -2q-16 0 -51.5 59t-35.5 78q0 9 6 9q18 0 96.5 -33.5t104.5 -33.5q33 0 113.5 19.5t132.5 19.5h19.5h22
t20 -1t22 -3t18.5 -5t19 -9t15 -13q2 -2 3 -2q3 0 11.5 17.5t13.5 17.5q10 0 10 -14q0 -28 -16 -84.5t-16 -87.5q0 -4 1 -12t1 -12q0 -24 -14 -24q-10 0 -25 50q-27 79 -231 79q-28 0 -42 -1q-59 -3 -122.5 -38.5t-108 -93.5t-44.5 -118q0 -66 43.5 -116.5t104.5 -74
t124 -23.5q74 0 143.5 29t110.5 84q11 14 16.5 46.5t10 56.5t13.5 24q7 -3 7 -18q0 -10 -2 -31t-2 -32q0 -31 9 -48.5t19.5 -23t19.5 -21.5t9 -44z" />
    <glyph glyph-name="afii10084" unicode="&#x442;" horiz-adv-x="727" 
d="M704 583q0 -59 -49.5 -115t-108.5 -56q-5 0 -7 5q29 20 48 57.5t19 73.5q0 15 -6 30t-19 15h-131q-33 0 -33 -37v-447q0 -12 8.5 -23t8.5 -14q0 -22 -43.5 -66.5t-62.5 -44.5q-13 0 -33.5 16t-20.5 29q0 10 13 34.5t13 36.5v482q0 34 -15 34h-111q-6 0 -15 -18
t-18.5 -40.5t-11.5 -26.5q-17 -28 -59.5 -73.5t-62.5 -45.5q-2 0 -6 2q-3 3 -3 11q0 14 14.5 62t14.5 81q0 27 -8.5 58t-8.5 32q0 16 17 16q9 0 40.5 -13.5t50.5 -13.5h156q-3 6 -3 13q0 14 21 14q20 0 58.5 -13.5t48.5 -13.5h150q22 31 72 31q83 0 83 -72z" />
    <glyph glyph-name="afii10085" unicode="&#x443;" horiz-adv-x="643" 
d="M632 519l-3 -6q-5 -5 -29 -5q-14 0 -21 -14q-6 -12 -17 -37.5t-17 -37.5q-87 -180 -207 -282q-173 -148 -318 -182l-7 -1q-13 0 -13 9q0 12 32 26q143 71 249 205q-69 42 -132.5 151.5t-101.5 214.5q-3 8 -22 40t-19 37q0 14 9 14q25 0 73 -5t73 -5q6 0 10 -5t5 -14
t1 -16.5t-1 -17t-1 -12.5q0 -95 34 -199t97 -154q63 80 114.5 194t61.5 207q2 30 19 30q10 0 25 -17q57 -67 85 -91q19 -17 21 -27z" />
    <glyph glyph-name="afii10086" unicode="&#x444;" horiz-adv-x="694" 
d="M668 182q0 -16 -20 -49.5t-34 -33.5q-16 0 -42 25.5t-47 25.5h-132v-40q0 -12 8.5 -23t8.5 -14q0 -22 -43.5 -66.5t-62.5 -44.5q-13 0 -33.5 16t-20.5 28t13 36.5t13 35.5v72h-107q-22 0 -48 -27t-37 -27q-14 0 -45.5 38t-31.5 52q0 8 9.5 22t9.5 25v364q0 9 -6.5 23.5
t-6.5 19.5q0 10 16 10q15 0 52 -13t62 -13h130v3q0 8 0.5 11.5t4 7.5t10.5 4q8 0 42.5 -13t59.5 -13h126q0 4 -5 11t-5 14q0 5 7 5q18 0 84 -38t66 -52q0 -4 -10 -18.5t-10 -34.5v-275q0 -20 12.5 -34.5t12.5 -19.5zM525 182v410h-99q-15 0 -24 -13t-9 -29v-368h132z
M276 182v410h-106q-27 0 -27 -42v-329q0 -15 9.5 -27t23.5 -12h100z" />
    <glyph glyph-name="afii10087" unicode="&#x445;" horiz-adv-x="619" 
d="M605 519l-3 -6q-4 -5 -29 -5q-10 0 -31.5 -19.5t-48.5 -51t-49.5 -59t-46 -58.5t-25.5 -34q21 -31 69.5 -93t58.5 -62q9 0 25.5 20.5t24.5 20.5q14 0 14 -12q0 -6 -9 -29t-10 -28q-11 -42 -11 -106v-10q0 -12 -10.5 -20.5t-22.5 -8.5t-42.5 31.5t-67.5 78.5t-60 77.5
t-39 52.5q-238 -238 -284 -238q-15 0 -15 12q0 6 4 12t8.5 9.5t12 9t9.5 7.5q105 82 213 256q-2 4 -32.5 49t-59 88.5t-61 94t-52.5 85t-20 41.5q0 16 11 25t28 9t51 -6t52 -6q11 0 28.5 6.5t25.5 6.5t8 -9q0 -14 -22 -32t-22 -31q0 -7 11.5 -28t31 -51.5t36 -55.5t36 -53.5
t22.5 -32.5q142 235 143 258q3 30 19 30q12 0 25 -17q51 -62 85 -91q20 -15 21 -27z" />
    <glyph glyph-name="afii10088" unicode="&#x446;" horiz-adv-x="672" 
d="M662 -10q0 -59 -49.5 -115t-108.5 -56q-5 0 -7 5q29 20 48 57.5t19 73.5q0 31 -11.5 38t-43.5 7q-4 0 -40 -20t-54 -20q-28 0 -28 40h-244q-22 0 -60.5 -19.5t-43.5 -19.5q-8 0 -23.5 15.5t-15.5 23.5q0 3 6.5 20t13 43t6.5 49v406q0 32 -13 68.5t-13 43.5q0 20 15 20
q19 0 83.5 -36.5t64.5 -51.5q0 -4 -10 -18.5t-10 -34.5v-442q0 -35 26 -35h221v485q0 32 -13 68.5t-13 43.5q0 20 15 20q19 0 83.5 -36.5t64.5 -51.5q0 -4 -10 -18.5t-10 -34.5v-477q22 31 72 31q83 0 83 -72z" />
    <glyph glyph-name="afii10089" unicode="&#x447;" horiz-adv-x="635" 
d="M581 563q0 -4 -10 -18.5t-10 -34.5v-403q0 -12 8.5 -23t8.5 -14q0 -22 -43.5 -66.5t-62.5 -44.5q-13 0 -33.5 16t-20.5 29q0 10 13 34.5t13 36.5v275q-65 -79 -127 -116t-165 -60q-4 -1 -9.5 -22.5t-17.5 -21.5q-19 0 -71.5 47.5t-52.5 64.5t13 26t13 18v233
q0 32 -13 68.5t-13 43.5q0 20 15 20q19 0 83.5 -36.5t64.5 -51.5q0 -4 -10 -18.5t-10 -34.5v-224q108 0 172 21.5t128 92.5v119q0 32 -13 68.5t-13 43.5q0 20 15 20q19 0 83.5 -36.5t64.5 -51.5z" />
    <glyph glyph-name="afii10090" unicode="&#x448;" horiz-adv-x="766" 
d="M739 56q0 -20 -43.5 -57t-66.5 -37q-28 0 -28 38h-165q-4 0 -40 -20t-54 -20q-28 0 -28 40h-171q-22 0 -60.5 -19.5t-43.5 -19.5q-8 0 -23.5 15.5t-15.5 23.5q0 3 6.5 20t13 43t6.5 49v407q0 32 -13 68.5t-13 43.5q0 20 15 20q19 0 83.5 -36.5t64.5 -51.5q0 -4 -10 -18
t-10 -35v-447q0 -13 8.5 -22t21.5 -9h140v487q0 32 -13 68.5t-13 43.5q0 20 15 20q19 0 83.5 -36.5t64.5 -51.5q0 -4 -10 -18t-10 -35v-445q0 -12 8.5 -22.5t19.5 -10.5h143v489q0 32 -13 68.5t-13 43.5q0 20 15 20q19 0 83.5 -36.5t64.5 -51.5q0 -4 -10 -18t-10 -35v-434h3
q8 1 13 -6.5t5 -15.5z" />
    <glyph glyph-name="afii10091" unicode="&#x449;" horiz-adv-x="880" 
d="M873 -10q0 -59 -49.5 -115t-108.5 -56q-5 0 -7 5q27 19 45 54.5t18 69.5q0 22 -10 37t-31 15h-294q-4 0 -40 -20t-54 -20q-28 0 -28 40h-171q-22 0 -60.5 -19.5t-43.5 -19.5q-8 0 -23.5 15.5t-15.5 23.5q0 3 6.5 20t13 43t6.5 49v407q0 32 -13 68.5t-13 43.5q0 20 15 20
q19 0 83.5 -36.5t64.5 -51.5q0 -4 -10 -18t-10 -35v-447q0 -13 8.5 -22t21.5 -9h140v487q0 32 -13 68.5t-13 43.5q0 20 15 20q19 0 83.5 -36.5t64.5 -51.5q0 -4 -10 -18t-10 -35v-445q0 -12 8.5 -22.5t19.5 -10.5h143v489q0 32 -13 68.5t-13 43.5q0 20 15 20
q19 0 83.5 -36.5t64.5 -51.5q0 -4 -10 -18t-10 -35v-481q22 31 72 31q83 0 83 -72z" />
    <glyph glyph-name="afii10092" unicode="&#x44a;" horiz-adv-x="731" 
d="M715 361q0 -8 -17 -20t-19 -24q-10 -81 -70.5 -154t-144 -116t-164.5 -48q-8 -13 -41.5 -25.5t-52.5 -12.5q-23 0 -23 20v570q0 42 -23 42q-26 0 -36.5 -33.5t-10.5 -66.5q0 -80 35 -150q-62 15 -104 95.5t-42 151.5q0 54 29 54q7 0 29.5 -9.5t40.5 -9.5q36 0 82 24
q3 -1 22.5 -8t35.5 -13.5t34.5 -15.5t29.5 -18.5t11 -18.5q0 -7 -8 -25.5t-8 -29.5v-154h413q2 -4 2 -5zM545 292q0 42 -50 42h-155q-20 0 -30 -14t-10 -34v-255q42 1 101 48.5t101.5 109.5t42.5 103z" />
    <glyph glyph-name="afii10093" unicode="&#x44b;" horiz-adv-x="784" 
d="M750 562q0 -4 -10 -18t-10 -35v-404q0 -11 8.5 -23t8.5 -14q0 -22 -43.5 -66.5t-62.5 -44.5q-14 0 -34 16.5t-20 30.5q0 8 13 32.5t13 36.5v449q0 29 -13 64.5t-13 43.5q0 20 15 20q19 0 83.5 -36.5t64.5 -51.5zM558 362q0 -9 -17.5 -21t-18.5 -24q-8 -80 -69 -153.5
t-145.5 -116.5t-164.5 -48q-8 -13 -41.5 -25.5t-52.5 -12.5q-23 0 -23 20v539q0 32 -13 68.5t-13 43.5q0 20 15 20q19 0 83.5 -36.5t64.5 -51.5q0 -4 -10 -18t-10 -35v-145h413q2 -2 2 -4zM388 291q0 42 -50 42h-155q-20 0 -30 -14t-10 -34v-255q42 1 101 48.5t101.5 109.5
t42.5 103z" />
    <glyph glyph-name="afii10094" unicode="&#x44c;" horiz-adv-x="584" 
d="M558 362q0 -9 -17.5 -21t-18.5 -24q-8 -80 -69 -153.5t-145.5 -116.5t-164.5 -48q-8 -13 -41.5 -25.5t-52.5 -12.5q-23 0 -23 20v539q0 32 -13 68.5t-13 43.5q0 20 15 20q19 0 83.5 -36.5t64.5 -51.5q0 -4 -10 -18t-10 -35v-145h413q2 -2 2 -4zM388 291q0 42 -50 42h-155
q-20 0 -30 -14t-10 -34v-255q42 1 101 48.5t101.5 109.5t42.5 103z" />
    <glyph glyph-name="afii10095" unicode="&#x44d;" horiz-adv-x="681" 
d="M722 338q0 -4 -3 -7t-8 -5.5t-10.5 -4t-12.5 -3t-12 -2t-11 -1.5t-8 -1q2 -18 2 -28q0 -115 -52 -177t-167 -109q-54 -23 -145 -23q-38 0 -101.5 8t-130 33t-66.5 60q0 23 6 37t14.5 21t16.5 14.5t14 23t6 41.5q0 11 -2 32t-2 31q0 18 7 18q9 0 13.5 -23.5t10 -56.5
t16.5 -47q42 -55 111 -84t144 -29q65 0 125.5 23.5t103.5 75t43 118.5q0 16 -5 36q-171 -23 -272 -23q-10 0 -31 -9t-29 -9q-10 0 -17 39.5t-7 60.5t4.5 49.5t14.5 28.5q11 0 33 -33q26 -39 108 -55.5t151 -15.5l32 1q-39 84 -122 131t-179 47q-203 0 -230 -79
q-15 -50 -25 -50q-6 0 -9 3.5t-4 10t-0.5 12t1 13t0.5 9.5q0 31 -16 87.5t-16 84.5q0 6 4 12q4 2 5 2q6 0 14.5 -17.5t11.5 -17.5q1 0 3 2q6 7 14 13t19 9t19 5t22.5 3t20.5 1h22h19q52 0 132.5 -19.5t113.5 -19.5q27 0 104.5 33.5t97.5 33.5q5 0 5 -7q0 -19 -35 -79
t-50 -60q-1 0 -16.5 9t-30.5 9q-9 0 -9 -4q2 -3 33.5 -25.5t69 -62t54.5 -86.5q5 0 19.5 2t22.5 2q31 0 31 -12z" />
    <glyph glyph-name="afii10096" unicode="&#x44e;" horiz-adv-x="807" 
d="M768 317q0 -82 -33.5 -158t-100.5 -127t-151 -51q-116 0 -199.5 94t-83.5 211h-57v-178q0 -12 8.5 -23t8.5 -14q0 -21 -43.5 -66t-62.5 -45q-14 0 -34 16t-20 30q0 9 13 34t13 36v445q0 32 -13 68.5t-13 43.5q0 20 15 20q19 0 83.5 -36.5t64.5 -51.5q0 -4 -10 -18
t-10 -35v-195h57v14q0 27 3.5 47.5t7.5 33t17 43.5q33 13 63 42t46.5 53t40.5 65q52 22 105 22q34 0 84 -18t76 -18q10 0 30 2.5t30 2.5q4 -2 4 -6q0 -6 -13 -22t-13 -26q0 -4 5 -12q43 -55 62.5 -106t19.5 -117zM651 318q0 40 -9 86t-27.5 93.5t-53 78.5t-78.5 31
q-43 0 -77 -31.5t-52.5 -79t-27.5 -94t-9 -85.5q0 -40 8.5 -88t26 -98.5t52 -84t79.5 -33.5t79.5 33.5t52.5 84.5t27 99t9 88z" />
    <glyph glyph-name="afii10097" unicode="&#x44f;" horiz-adv-x="725" 
d="M691 600q0 -4 -10 -18t-10 -35v-437q0 -12 8.5 -23t8.5 -14q0 -21 -43.5 -66t-62.5 -45q-14 0 -34 16t-20 30q0 9 13 34t13 36v86q-91 10 -130 26q-60 -85 -186.5 -149.5t-239.5 -76.5q85 36 185 118t142 157q-71 37 -130 115t-73 156q-7 8 -21 9.5t-24 3t-10 9.5
q0 14 51.5 66t60.5 52t17.5 -13t13.5 -13h344q-1 7 -8.5 20.5t-7.5 22.5q0 7 4.5 13.5t10.5 6.5q17 0 72.5 -37.5t63.5 -41.5q2 -2 2 -8zM554 196v361q0 15 -8.5 25t-22.5 10h-236q-55 0 -55 -24q0 -47 40.5 -122.5t79.5 -116.5q4 12 4 29q0 8 -2.5 22.5t-2.5 21.5q0 9 9 9
q4 0 12 -2q5 -1 16 -12t23 -25t16 -18q6 -6 28.5 -20.5t37.5 -29t15 -27.5q0 -7 -23 -14.5t-31 -23.5q57 -43 100 -43z" />
    <glyph glyph-name="afii10071" unicode="&#x451;" horiz-adv-x="651" 
d="M404 724q0 -22 -42 -59t-64 -37l-9 5v4q0 2 15.5 34.5t11.5 60.5h78q10 0 10 -8zM257 724q0 -22 -42 -59t-64 -37l-9 5v4q0 2 15.5 34.5t11.5 60.5h78q10 0 10 -8zM636 9q0 -5 -6 -9l-488 -1q-22 0 -60.5 -19.5t-43.5 -19.5q-8 0 -23.5 15.5t-15.5 23.5q0 3 6.5 20t13 43
t6.5 49v418q0 29 -15 64.5t-15 36.5l4 6q2 2 8 2q8 0 33 -16t63 -32.5t78 -16.5h189l28 23q29 24 50 39t29 15q10 0 48.5 -42.5t38.5 -56.5q0 -5 -6 -9h-379q-18 0 -27.5 -17t-9.5 -37v-171h228l28 23q29 24 50 39t29 15q10 0 48.5 -42.5t38.5 -56.5q0 -5 -6 -9h-416v-200
q0 -22 9.5 -38t29.5 -16l261 -1l28 23q29 24 50 39t29 15q10 0 48.5 -42.5t38.5 -56.5z" />
    <glyph glyph-name="afii10100" unicode="&#x453;" horiz-adv-x="480" 
d="M497 631q-93 0 -141 -50.5t-69 -146.5q5 1 16 1q55 0 125 -24l-68 -106q-48 21 -93 32q-33 -184 -67 -271q-66 -168 -172 -168q-94 0 -167 95l102 142q1 -2 5 -14l5.5 -16.5t6 -16t7.5 -16.5t8 -14t10.5 -13.5t12 -10t14 -7.5t16.5 -2q21 0 39 13t32 38.5t25 51t21 62.5
t15 59.5t11.5 55.5t7.5 39q-61 -7 -87 -39l-25 17q29 42 55 62.5t73 37.5q16 114 87 199t180 116z" />
    <glyph glyph-name="afii10101" unicode="&#x454;" horiz-adv-x="320" 
d="M283 530q0 -48 -39 -82t-88 -34t-83.5 34.5t-34.5 84.5q0 51 36.5 83.5t88.5 32.5q47 0 83.5 -36.5t36.5 -82.5zM225 505q0 18 -16.5 32.5t-34.5 14.5q-19 0 -37.5 -13t-18.5 -31q0 -27 17.5 -40t45.5 -13q18 0 31 15.5t13 34.5z" />
    <glyph glyph-name="afii10103" unicode="&#x456;" horiz-adv-x="361" 
d="M332 477q0 -26 -20 -44t-51.5 -26.5t-58.5 -12t-51 -3.5q-46 0 -98.5 33.5t-52.5 74.5q0 12 9 13q68 13 77 13q10 0 12 -12l-5 -8q-27 -17 -27 -35q0 -27 28.5 -44.5t56.5 -17.5q38 0 77 22t39 57q0 20 -20 35t-41 15q-7 0 -9 -6t-5 -6q-11 0 -29 19.5t-18 31.5l9 9
q10 9 23 22t26 27t22.5 26.5t9.5 18.5q0 10 -15 10h-116q-22 0 -36 -9.5t-20 -29t-8 -34t-2 -38.5q-28 47 -28 101q0 25 8 35q2 8 10 8q6 0 27.5 -8.5t35.5 -8.5h175q8 0 23 5t22 5q9 0 9 -10l-1 -6q-4 -6 -30.5 -41t-50.5 -66l-23 -31q1 -3 4 -3t6.5 1t4.5 1q50 0 76 -17.5
t26 -65.5z" />
    <glyph glyph-name="afii10104" unicode="&#x457;" horiz-adv-x="480" 
d="M284 481q0 -17 -13 -30.5t-30 -13.5q-18 0 -31 13t-13 31t13 30.5t31 12.5q17 0 30 -13t13 -30zM429 303h-378v60h378v-60zM284 187q0 -17 -13 -30.5t-30 -13.5q-18 0 -31 13t-13 31t13 30.5t31 12.5q17 0 30 -13t13 -30z" />
    <glyph glyph-name="afii10110" unicode="&#x45e;" horiz-adv-x="480" 
d="M442 500q-19 -11 -34 -22q14 -20 20 -30l-24 -17l-24 30q-20 -21 -27.5 -37t-18.5 -51q-28 38 -28 77q0 34 18 72q-40 19 -63 21v-354q16 -2 24 -2q44 0 74.5 17.5t64.5 55.5l14 -12l-127 -161q-23 -4 -50 -4v-55h-32v59q-86 17 -134 82.5t-48 154.5q0 92 47.5 164
t134.5 84v56h32v-55q30 -2 80 -25q8 8 41 34zM229 196v346q-58 -13 -89.5 -63t-31.5 -113q0 -62 31.5 -106.5t89.5 -63.5z" />
    <glyph glyph-name="afii10193" unicode="&#x45f;" horiz-adv-x="480" 
d="M421 197l-44 -45l-137 137l-137 -137l-44 45l137 136l-137 137l44 44l137 -136l137 136l44 -44l-137 -137z" />
    <glyph glyph-name="afii10050" unicode="&#x490;" horiz-adv-x="480" 
d="M478 657q-102 -110 -149 -258h101v-40h-112q-6 -20 -14 -60h126v-40h-134q-15 -94 -9 -266l-141 104q21 89 51 162h-140v40h157l4 10q-13 28 -27 50h-134v40h108q-67 89 -163 148l117 126q89 -83 149 -259q84 161 196 265z" />
    <glyph glyph-name="afii10098" unicode="&#x491;" horiz-adv-x="500" 
d="M361 708q-92 -98 -217 -110l-5 21q138 71 173 165z" />
    <glyph glyph-name="endash" unicode="&#x2013;" horiz-adv-x="642" 
d="M585 295q0 -5 -6 -9h-523q-20 0 -20 14q0 17 28 17h327q1 1 28 24t48.5 38t30.5 15q11 0 49 -41.5t38 -57.5z" />
    <glyph glyph-name="emdash" unicode="&#x2014;" horiz-adv-x="752" 
d="M758 295q0 -5 -6 -9h-731q-20 0 -20 14q0 17 28 17h535q1 1 28 24t48.5 38t30.5 15q11 0 49 -41.5t38 -57.5z" />
    <glyph glyph-name="quoteleft" unicode="&#x2018;" horiz-adv-x="189" 
d="M171 523q0 -16 -7 -22.5t-23 -6.5l-21 -1q-22 -1 -34.5 0t-31 3.5t-27.5 10.5t-9 20q2 18 2 27q0 10 -2 31t-2 32q0 26 11 46t32 34.5t40 23t46 17.5q4 1 6 1q1 0 1 -1q0 -2 -35 -38.5t-35 -52.5q0 -6 5 -9.5t13 -4t16 -0.5t16.5 1t11.5 1q10 0 16.5 -8t9 -24t3 -28
t-0.5 -30.5t-1 -21.5z" />
    <glyph glyph-name="quoteright" unicode="&#x2019;" horiz-adv-x="189" 
d="M172 563q0 -26 -11 -46t-32 -34.5t-40 -23t-46 -17.5q-4 -1 -6 -1q-1 0 -1 1q0 2 35 38.5t35 52.5q0 6 -5 9.5t-13 4t-16 0.5t-16.5 -1t-11.5 -1q-10 0 -16.5 8t-9 24t-3 28t0.5 30.5t1 21.5q0 16 7 22.5t23 6.5l21 1q22 1 34.5 0t31 -3.5t27.5 -10.5t9 -20
q-2 -18 -2 -27q0 -10 2 -31t2 -32z" />
    <glyph glyph-name="quotesinglbase" unicode="&#x201a;" horiz-adv-x="321" 
d="M223 29q0 -26 -11 -46t-32 -34.5t-40 -23t-46 -17.5q-4 -1 -6 -1q-1 0 -1 1q0 2 35 38.5t35 52.5q0 6 -5 9.5t-13 4t-16 0.5t-16.5 -1t-11.5 -1q-10 0 -16.5 8t-9 24t-3 28t0.5 30.5t1 21.5q0 16 7 22.5t23 6.5l22 1q21 1 33.5 0t31 -3.5t27.5 -10.5t9 -20q-2 -18 -2 -27
q0 -10 2 -31t2 -32z" />
    <glyph glyph-name="quotedblleft" unicode="&#x201c;" horiz-adv-x="455" 
d="M408 497q0 -29 -35 -29l-21 -1q-22 -1 -34.5 0t-31 3.5t-27.5 10.5t-9 20q2 18 2 27q0 10 -2 31t-2 32q0 26 11 46t32 34.5t40 23t46 17.5q4 1 6 1q1 0 1 -1q0 -2 -35 -38.5t-35 -52.5q0 -6 5 -9.5t13 -4t16 -0.5t16.5 1t11.5 1q12 0 17.5 -5.5t6 -11.5t-0.5 -18.5
t-1 -16.5q0 -11 5 -30.5t5 -29.5zM185 498q0 -30 -40 -30q-3 0 -14.5 -0.5t-20.5 -0.5t-22 0.5t-23 3t-19 6t-14 9.5t-5 15q2 18 2 27q0 10 -2 31t-2 32q0 26 11 46t32 34.5t40 23t46 17.5q4 1 6 1q1 0 1 -1q0 -2 -35 -38.5t-35 -52.5q0 -6 5 -9.5t13 -4t16 -0.5t16.5 1
t11.5 1q12 0 17.5 -5.5t6 -11t-0.5 -18t-1 -16.5q0 -11 5 -30.5t5 -29.5z" />
    <glyph glyph-name="quotedblright" unicode="&#x201d;" horiz-adv-x="455" 
d="M403 509q0 -26 -11 -46t-32 -34.5t-40 -23t-46 -17.5q-4 -1 -6 -1q-1 0 -1 1q0 2 35 38.5t35 52.5q0 6 -5 9.5t-13 4t-16 0.5t-16.5 -1t-11.5 -1q-12 0 -17.5 5.5t-6 11t0.5 18t1 16.5q0 11 -5 30.5t-5 29.5q0 30 40 30q3 0 14.5 0.5t20.5 0.5t22 -0.5t23 -3t19 -6
t14 -9.5t5 -15q-2 -18 -2 -27q0 -10 2 -31t2 -32zM180 509q0 -26 -11 -46t-32 -34.5t-40 -23t-46 -17.5q-4 -1 -6 -1q-1 0 -1 1q0 2 35 38.5t35 52.5q0 6 -5 9.5t-13 4t-16 0.5t-16.5 -1t-11.5 -1q-12 0 -17.5 5.5t-6 11.5t0.5 18.5t1 16.5q0 11 -5 30.5t-5 29.5q0 29 35 29
l21 1q22 1 34.5 0t31 -3.5t27.5 -10.5t9 -20q-2 -18 -2 -27q0 -10 2 -31t2 -32z" />
    <glyph glyph-name="quotedblbase" unicode="&#x201e;" horiz-adv-x="448" 
d="M409 13q0 -25 -11.5 -45t-32.5 -34t-40.5 -22.5t-45.5 -17.5q-4 -1 -6 -1q-1 0 -1 1q0 2 35 38.5t35 52.5q0 6 -5 9.5t-13 4t-16 0.5t-16.5 -1t-11.5 -1q-10 0 -16.5 5.5t-8.5 16t-2 19t1 21.5t1 17t-2 12.5t-2 13.5q0 36 37 36q3 0 14.5 0.5t20.5 0.5t22 -0.5t23 -3
t19 -6t14 -9.5t5 -15q-2 -16 -2 -26q0 -11 2.5 -33t2.5 -33zM185 15q0 -26 -11 -46t-32 -34.5t-40 -23t-46 -17.5q-4 -1 -6 -1q-1 0 -1 1q0 2 35 38.5t35 52.5q0 6 -5 9.5t-13 4t-16 0.5t-16.5 -1t-11.5 -1q-12 0 -18 6.5t-6.5 12.5t0.5 20t1 17q0 10 -2 28t-2 27q0 18 8 24
t27 6q3 0 14.5 0.5t20.5 0.5t22 -0.5t23 -3t19 -6t14 -9.5t5 -15q-2 -18 -2 -27q0 -10 2 -31.5t2 -31.5z" />
    <glyph glyph-name="dagger" unicode="&#x2020;" horiz-adv-x="480" 
d="M431 474q-53 -32 -85 -46t-81 -22q0 -78 12.5 -140t41.5 -146l-125 -120q-41 97 -41 208q0 94 27 194q-83 3 -150 21l73 104q59 -42 98 -57q37 100 88 172l21 -13q-38 -87 -43 -173q7 -1 22 -1q40 0 66 7.5t70 27.5z" />
    <glyph glyph-name="daggerdbl" unicode="&#x2021;" horiz-adv-x="480" 
d="M451 248q-90 -54 -151 -69l19 -59l-125 -120q-33 73 -39 170q-85 7 -145 22l80 115q38 -27 66 -43q7 78 24 138q-83 3 -150 21l73 104q53 -38 98 -57q37 100 88 172l21 -13q-38 -87 -43 -173q7 -1 22 -1q40 0 66 7.5t70 27.5l6 -16q-52 -32 -85.5 -46.5t-80.5 -21.5
q0 -97 21 -178h10q42 0 72 8.5t77 29.5z" />
    <glyph glyph-name="bullet" unicode="&#x2022;" horiz-adv-x="667" 
d="M473 339q0 -57 -40.5 -98t-97.5 -41t-98 40.5t-41 97.5q0 59 41 99t100 40q56 0 96 -41t40 -97z" />
    <glyph glyph-name="ellipsis" unicode="&#x2026;" horiz-adv-x="752" 
d="M679 76v-37v-16.5t-2.5 -11t-3 -7t-6 -3.5t-7.5 -1h-11h-14q-7 0 -22.5 -2t-23.5 -2q-26 0 -26 21q0 7 3 22t3 23q0 6 -3 18t-3 19t3.5 11t11 5.5t12.5 2t14.5 0t11.5 -0.5h14.5h13t10 -0.5t9.5 -2t7 -4.5t5.5 -7.5t2.5 -11t1 -15.5zM430 76v-37v-16.5t-2.5 -11t-3 -7
t-6 -3.5t-7.5 -1h-11h-14q-7 0 -22.5 -2t-23.5 -2q-26 0 -26 21q0 7 3 22t3 23q0 6 -3 18t-3 19t3.5 11t11 5.5t12.5 2t14.5 0t11.5 -0.5h14.5h13t10 -0.5t9.5 -2t7 -4.5t5.5 -7.5t2.5 -11t1 -15.5zM181 76v-37v-16.5t-2.5 -11t-3 -7t-6 -3.5t-7.5 -1h-11h-14q-7 0 -22.5 -2
t-23.5 -2q-26 0 -26 21q0 7 3 22t3 23q0 6 -3 18t-3 19t3.5 11t11 5.5t12.5 2t14.5 0t11.5 -0.5h14.5h13t10 -0.5t9.5 -2t7 -4.5t5.5 -7.5t2.5 -11t1 -15.5z" />
    <glyph glyph-name="perthousand" unicode="&#x2030;" horiz-adv-x="864" 
d="M824 102q0 -48 -39 -82t-88 -34t-83.5 34.5t-34.5 84.5q0 51 36.5 83.5t88.5 32.5q47 0 83.5 -36.5t36.5 -82.5zM270 552q0 -42 -32.5 -78t-73.5 -36q-48 0 -81 33t-33 81q0 47 33.5 71.5t82.5 24.5q42 0 73 -27t31 -69zM606 505q0 -8 -10.5 -9.5t-27.5 0.5t-18 2
q-10 0 -19 -3q-242 -96 -377 -342q-30 -56 -50 -108q-1 -2 -7 -18.5t-12 -31t-8 -15.5l-2 6q51 310 365 613q29 29 56 29t68.5 -48t41.5 -75zM533 102q0 -48 -39 -82t-88 -34t-83.5 34.5t-34.5 84.5q0 51 36.5 83.5t88.5 32.5q47 0 83.5 -36.5t36.5 -82.5zM768 112
q0 18 -16.5 32.5t-34.5 14.5q-19 0 -37.5 -13t-18.5 -31q0 -27 17.5 -40t45.5 -13q18 0 31 15.5t13 34.5zM231 558q0 18 -13.5 28.5t-31.5 10.5t-32 -11t-14 -28t14 -28t32 -11t31.5 10.5t13.5 28.5zM477 112q0 18 -16.5 32.5t-34.5 14.5q-19 0 -37.5 -13t-18.5 -31
q0 -27 17.5 -40t45.5 -13q18 0 31 15.5t13 34.5z" />
    <glyph glyph-name="guilsinglleft" unicode="&#x2039;" horiz-adv-x="510" 
d="M413 434q0 -8 -8.5 -15t-16.5 -7q-84 0 -176 -83q125 -38 193 -156q4 -8 4 -10q0 -12 -10 -12q-4 0 -16 12q-57 53 -95.5 68t-117.5 17q-9 0 -13 4t-4 10.5v14.5q-5 1 -20.5 -15.5t-20.5 -16.5q-3 0 -3 5q0 38 107 153t134 115q11 0 16 -15.5t13 -34.5t25 -25q9 -4 9 -9z
" />
    <glyph glyph-name="guilsinglright" unicode="&#x203a;" horiz-adv-x="483" 
d="M403 321q0 -6 -9 -6q-11 0 -25 7q9 -20 9 -30q0 -15 -27 -15q-48 0 -93 -28.5t-72 -56.5t-30 -28q-5 0 -5 5q0 27 55.5 106t80.5 73q-35 9 -107 67t-72 88q0 8 10 8q6 0 16 -2t16 -2q14 0 37 9.5t35 9.5q23 0 26 -17q7 -61 43 -102.5t98 -73.5q14 -8 14 -12z" />
    <glyph glyph-name="Euro" unicode="&#x20ac;" horiz-adv-x="500" 
d="M392 723l-5 -19q-104 15 -187 72q-33 -37 -85 -66l-13 16q72 58 107 161q24 -56 74.5 -101t108.5 -63z" />
    <glyph glyph-name="afii61352" unicode="&#x2116;" horiz-adv-x="1102" 
d="M952 392q0 -48 -39 -82t-88 -34t-83.5 34.5t-34.5 84.5q0 51 36.5 83.5t88.5 32.5q47 0 83.5 -36.5t36.5 -82.5zM1047 166q0 -16 -32.5 -23t-58.5 -7q-57 0 -143 28.5t-125 63.5q-16 13 -16 24q0 5 8 5q4 0 59.5 -18.5t99.5 -18.5q79 0 109 34q1 1 14 12.5t21 11.5
q11 0 17 -29q3 -20 25 -48t22 -35zM653 563q0 -4 -10 -18.5t-10 -34.5v-401q0 -12 8.5 -23t8.5 -14q0 -22 -43.5 -66.5t-62.5 -44.5q-14 0 -31 14t-17 28q0 17 20 51q-89 18 -200 127.5t-138 199.5v-272q0 -12 8.5 -23t8.5 -14q0 -22 -43.5 -66.5t-62.5 -44.5
q-13 0 -33.5 16t-20.5 29q0 10 13 34.5t13 36.5v441q0 32 -13 68.5t-13 43.5q0 20 15 20q19 0 83.5 -36.5t64.5 -51.5q0 -4 -2 -8t-6 -8t-6 -7q-6 -11 -6 -81q2 4 14 35.5t24.5 51.5t25.5 20q6 0 10 -6q6 -22 18 -70.5t18 -71t19 -64.5t24 -65t30 -57.5t40 -57t50.5 -47.5
t64.5 -45v438q0 32 -13 68.5t-13 43.5q0 20 15 20q19 0 83.5 -36.5t64.5 -51.5zM894 367q0 18 -16.5 32.5t-34.5 14.5q-19 0 -37.5 -13t-18.5 -31q0 -27 17.5 -40t45.5 -13q18 0 31 15.5t13 34.5z" />
    <glyph glyph-name="trademark" unicode="&#x2122;" horiz-adv-x="725" 
d="M728 362l-67 -75q-48 72 -48 166q0 39 10 87q-63 -53 -77 -86q13 -54 13 -89q0 -26 -6 -78h-26q2 26 2 39q0 44 -9 69q-8 -23 -8 -108h-27q-4 40 -4 60q0 54 14 99q-23 40 -62 75q6 -50 6 -76q0 -87 -62 -160l-64 74q72 65 72 165q0 10 -2 32q-16 9 -37 19l25 31
q-10 14 -32 42l20 17q16 -17 31 -37l25 31q40 -32 60.5 -59.5t43.5 -78.5q26 45 49.5 72.5t64.5 61.5l21 -25q15 18 31 34l19 -19q-15 -17 -29 -38l23 -26q-5 -2 -14.5 -6.5t-14.5 -6.5q-1 -7 -1 -22q0 -96 60 -184zM331 652q-25 -32 -53 -50t-74 -37q19 -51 19 -95
q0 -101 -70 -190l-73 71q78 85 78 178q0 9 -2 23q-97 3 -171 39l57 67q51 -27 94 -33l-13 25l25 12q18 -26 27 -40q91 2 137 43z" />
    <glyph glyph-name="nbspace" horiz-adv-x="453" 
 />
    <glyph glyph-name="sfthyphen" horiz-adv-x="500" 
d="M439 303h-378v60h378v-60z" />
    </font>
</defs>
</svg>
